<?xml version="1.0" standalone="no"?>
<!DOCTYPE svg PUBLIC "-//W3C//DTD SVG 1.1//EN" "http://www.w3.org/Graphics/SVG/1.1/DTD/svg11.dtd" >
<svg xmlns="http://www.w3.org/2000/svg">
<metadata>
This is a custom SVG webfont generated by Font Squirrel.
Copyright   :  thebend aka Dimitri Castrique 2006 wwwthebendbe
Designer    : Dimitri Castrique
Foundry     : Dimitri Castrique
Foundry URL : FREE
</metadata>
<defs>
<font id="EdificeThinRegular" horiz-adv-x="1445" >
<font-face units-per-em="2048" ascent="1638" descent="-410" />
<missing-glyph horiz-adv-x="446" />
<glyph unicode=" "  horiz-adv-x="446" />
<glyph unicode="&#x09;" horiz-adv-x="446" />
<glyph unicode="&#xa0;" horiz-adv-x="446" />
<glyph unicode="!" horiz-adv-x="612" d="M199 125q0 78 112 78h2q104 0 105 -72q0 -49 -34 -98t-79 -49q-47 0 -76.5 46t-29.5 95zM229 1337h154l-25 -1009q-55 10 -59 12q-27 8 -36 40t-13 85v14z" />
<glyph unicode="&#x22;" horiz-adv-x="692" d="M115 1501q29 -74 44 -222.5t36 -213.5h94q-14 68 -11 219.5t-18 216.5h-145zM389 1501q29 -72 44.5 -220t37.5 -216h92q-14 68 -12 219.5t-19 216.5h-143z" />
<glyph unicode="#" horiz-adv-x="1376" d="M168 334l12 106q68 10 209 25l25 221q-37 -4 -109 -13l-102 -14l12 107q68 10 209 25l39 356h108l-36 -346q190 18 333 28l35 318h109l-33 -311q115 8 205 12l-13 -111q-2 0 -204 -6l-23 -221q115 8 205 12l-10 -110q-4 0 -207 -6l-43 -406h-109l43 399 q-158 -10 -336 -28l-38 -371h-109l39 360q-176 -22 -211 -26zM500 475q195 18 336 29l22 221l-336 -27z" />
<glyph unicode="$" horiz-adv-x="839" d="M141 686q0 43 19 92l80 -8v-6q-12 -41 -13 -68q0 -63 39 -109t121 -57l2 33h47l2 -35q80 6 124 60.5t44 122.5q0 82 -42 117.5t-130 54.5q-258 55 -258 202q0 84 62.5 152t173.5 82v113h67v-111q84 0 156 -14l-4 -84q-80 25 -156 26l-6 -75h-47l-4 75q-76 -8 -114 -49 t-38 -102q0 -45 38 -77t79 -45t109 -28q100 -23 153 -73t53 -148q0 -90 -65.5 -174t-186.5 -98v-113h-67v113q-111 10 -174.5 70.5t-63.5 160.5z" />
<glyph unicode="%" horiz-adv-x="1236" d="M90 1155q0 176 162 211q4 2 12 2q4 2 11.5 3t11.5 1q334 45 583 55q10 -10 35 -45l-268 -487l-289 -522l-17.5 12l-17.5 12q-27 20 13 86l247 451l226 420l-4 4q-129 -4 -318 -25q59 -49 60 -157q0 -115 -70 -193t-164 -78q-92 0 -152.5 65.5t-60.5 184.5zM178 1165 q0 -84 33 -137t98 -53q61 0 100.5 56t39.5 136t-32 109t-104 29q-135 -1 -135 -140zM664 647q0 113 65.5 166t161.5 53q104 0 161.5 -42t57.5 -154q0 -115 -70.5 -194t-163 -79t-152.5 66.5t-60 183.5zM752 659q0 -86 32.5 -139t98.5 -53q61 0 100 57.5t39 137t-32 107.5 t-105 28q-59 0 -96 -34t-37 -104z" />
<glyph unicode="&#x26;" horiz-adv-x="1273" d="M127 410q0 109 59.5 188.5t171.5 167.5q-86 98 -119.5 161.5t-33.5 129.5q0 96 67 160q72 68 191 67q106 0 170.5 -55t64.5 -148q0 -162 -198 -313q180 -197 385 -369q59 94 86.5 182.5t25.5 146.5t-14 103.5t-27 65.5l-14 21l-8 8h129v-2q82 -190 -2 -406 q-33 -88 -98 -178q121 -98 217 -164l4 -4l-4 -4l-64 -78l-2 -2l-2 2q-137 96 -225 172q-176 -160 -422 -160q-154 0 -246 84.5t-92 223.5zM236 424q0 -100 71.5 -164.5t179.5 -64.5q190 0 326 127q-223 190 -395 380q-182 -141 -182 -278zM311 1061q0 -84 129 -230 q82 63 116 118t34 118q0 61 -36 96t-101 35q-63 0 -102.5 -38t-39.5 -99z" />
<glyph unicode="'" horiz-adv-x="382" d="M117 1065h92q0 68 33.5 215t29.5 221h-143q12 -74 -4 -222t-8 -214z" />
<glyph unicode="(" horiz-adv-x="616" d="M88 696q0 -186 41 -346t118 -280.5t138 -193.5t152 -157q6 12 20 38l21 36q-70 72 -122.5 142.5t-114.5 183t-96 263t-34 325.5q0 299 113.5 538.5t257.5 364.5l-31 80q-182 -135 -322.5 -401.5t-140.5 -588.5v-4z" />
<glyph unicode=")" horiz-adv-x="616" d="M49 -199l31 -82q182 135 322.5 402.5t140.5 589.5v2q0 188 -41 348t-117 279.5t-139.5 193.5t-151.5 156q-8 -12 -22.5 -38t-18.5 -34q70 -72 122 -142.5t114.5 -183t96.5 -263t34 -324.5q0 -299 -114 -539t-257 -365z" />
<glyph unicode="*" horiz-adv-x="626" d="M76 1053q8 -16 37 -60q106 74 157 113q0 -61 -8 -197h72l-6 197l157 -113q18 23 39 58l-172 102l170 102q-6 18 -35 60l-159 -113l6 193q-4 0 -16.5 1t-18.5 1t-18.5 -1t-18.5 -1q8 -125 10 -193l-161 113q-2 -2 -15.5 -24.5t-19.5 -37.5l172 -100z" />
<glyph unicode="+" horiz-adv-x="907" d="M59 512v106q125 18 342 37v338h121v-327q129 10 326 20v-111q-80 0 -326 -12v-356h-121v346q-221 -18 -342 -41z" />
<glyph unicode="," horiz-adv-x="425" d="M55 -236q20 -33 41 -55q106 55 180 143.5t74 190.5q0 55 -31.5 96t-74.5 41q-90 0 -101 -133q57 -14 58 -92q-1 -93 -146 -191z" />
<glyph unicode="-" horiz-adv-x="669" d="M100 573v103q197 20 467 37v-105q-231 -10 -467 -35z" />
<glyph unicode="." horiz-adv-x="425" d="M106 125q0 -51 30 -96t77 -45q45 0 79 49t34 98q0 72 -107 72q-113 0 -113 -78z" />
<glyph unicode="/" horiz-adv-x="763" d="M148.5 128q3.5 -24 23.5 -34l29 -14l28 -14l441 1159h-119l-383 -1004l-17.5 -52t-2 -41z" />
<glyph unicode="0" horiz-adv-x="1191" d="M119 766q0 -375 124 -578.5t343 -203.5q188 0 337.5 208.5t149.5 583.5q0 193 -34.5 320t-102.5 189.5t-143.5 85t-182.5 22.5q-491 0 -491 -627zM256 780q0 150 25.5 253.5t76 156.5t107.5 74.5t133 21.5q119 0 188.5 -41t109.5 -157.5t40 -325.5q0 -303 -99.5 -486.5 t-244.5 -183.5q-168 0 -252 189.5t-84 498.5z" />
<glyph unicode="1" horiz-adv-x="686" d="M41 1305q102 41 226 59t204 12v-1376h-133v1264q-143 -14 -277 -68z" />
<glyph unicode="2" horiz-adv-x="989" d="M90 0q-4 70 53 152l254 294q166 195 227.5 318t61.5 250q0 119 -67.5 195.5t-200.5 76.5q-139 0 -281 -88l-18 115q154 80 330 80t276 -100.5t100 -260.5q0 -145 -74.5 -286.5t-267.5 -364.5l-190 -223q59 -4 147 -19.5t153.5 -29t145.5 -13.5t142 25v-121 q-100 -39 -258 -15.5t-271.5 48t-257.5 -28.5z" />
<glyph unicode="3" horiz-adv-x="948" d="M129 2l14 119q68 -25 191 -25q152 0 250 101.5t98 232.5q0 305 -432 270l-27 105q233 -6 330.5 65.5t97.5 223.5q0 104 -63.5 147t-188.5 43q-129 0 -247 -65l-11 114q135 57 279 58q367 0 366 -279q0 -119 -63.5 -207t-175.5 -131v-4q119 -16 195.5 -108.5t76.5 -223.5 q0 -184 -142 -319t-353 -135q-115 0 -195 18z" />
<glyph unicode="4" horiz-adv-x="1099" d="M35 436l596 940h172v-872q219 14 235 14v-110q-158 -4 -235 -11v-397h-127v391q-340 -23 -619 -63zM164 449q203 23 512 45v753h-2z" />
<glyph unicode="5" horiz-adv-x="962" d="M168 -8q74 -8 127 -8q242 0 396.5 129t154.5 333q0 180 -133 285t-379 105l35 415h407v125h-530l-35 -657q27 2 88 2q203 0 307.5 -76t104.5 -221t-109.5 -235.5t-292.5 -90.5q-66 0 -127 19z" />
<glyph unicode="6" horiz-adv-x="1193" d="M164 541q0 197 65.5 363.5t169 270t221 161t228.5 57.5h22l13 -113h-52q-154 0 -323.5 -167t-198.5 -343q-10 -55 -18 -92l6 -2q109 184 352 184q188 0 304 -113.5t116 -283.5q0 -213 -128 -346t-341 -133q-207 0 -321.5 145.5t-114.5 411.5zM309 428q0 -141 83 -240.5 t216 -99.5q156 0 244 96.5t88 253.5q0 139 -83 226.5t-230 87.5q-141 0 -229.5 -91.5t-88.5 -232.5z" />
<glyph unicode="7" horiz-adv-x="921" d="M55 1249v127h801v-114q-215 -264 -323.5 -604.5t-112.5 -657.5h-139q16 344 127.5 691t281.5 558v4q-117 -4 -635 -4z" />
<glyph unicode="8" horiz-adv-x="1120" d="M135 350q12 -166 131 -266t283 -100q162 0 291 106q127 106 143 277q18 246 -278 391q254 158 253 352q0 127 -104 211q-104 80 -274 80q-184 0 -297 -94q-115 -102 -113 -250q0 -172 205 -301q-258 -160 -240 -406zM279 377q-4 111 36 174q47 76 162 166l146 -76 q113 -61 186 -154q47 -72 39 -151q-10 -111 -88 -178q-80 -68 -195 -68q-121 0 -198.5 78t-87.5 209zM301 1098q0 88 72 143q70 57 188 57q117 0 193 -57q74 -59 71 -149q0 -172 -215 -310q-188 100 -243 162q-66 70 -66 154z" />
<glyph unicode="9" horiz-adv-x="1175" d="M115 913q0 215 129 347.5t340 132.5q207 0 321.5 -145.5t114.5 -411.5q0 -158 -43 -298.5t-114.5 -239.5t-161 -172t-182.5 -107.5t-181 -34.5h-25l-12 114q16 -2 53 -2q154 0 323 168t197 344q10 61 19 92l-4 2q-111 -186 -354 -186q-186 0 -303 113.5t-117 283.5z M246 938q0 -139 83 -226t228 -87q143 0 230 91t87 232q0 143 -81.5 241.5t-217.5 98.5q-154 0 -241.5 -96t-87.5 -254z" />
<glyph unicode=":" horiz-adv-x="501" d="M145 127q0 78 113 78q104 0 104 -72q0 -49 -33.5 -99t-78.5 -50t-75 46t-30 97zM145 737q0 78 113 78q104 0 104 -72q0 -49 -33.5 -98t-78.5 -49t-75 45t-30 96z" />
<glyph unicode=";" horiz-adv-x="501" d="M61 -219q145 94 146 190q0 78 -57 92q8 131 98 132q43 0 75.5 -40t32.5 -96q0 -102 -73.5 -190t-180.5 -143q-27 30 -41 55zM141 739q0 78 111 78h4q102 0 102 -72q0 -49 -33.5 -99t-78.5 -50t-75 46t-30 97z" />
<glyph unicode="&#x3c;" horiz-adv-x="1019" d="M133 637l2 6v6v8l47 41q326 289 545 463l61 -90q-307 -236 -501 -430q-2 0 -2 -2q-12 -12 -6 -18q123 -113 245 -172q121 -55 250 -89q41 -12 80 -18l-12 -20l-56 -82q-154 41 -325 127q-98 51 -179 114.5t-115 103.5t-34 52z" />
<glyph unicode="=" horiz-adv-x="1105" d="M160 348v107q305 45 786 67v-110q-462 -5 -786 -64zM160 670v106q305 45 786 68v-111q-444 -4 -786 -63z" />
<glyph unicode="&#x3e;" horiz-adv-x="1019" d="M162 342l14 -20l55 -82q154 41 326 127q98 51 178 115.5t114 103.5t34 51v12v8q-6 4 -47 41q-373 328 -545 463l-62 -90q295 -227 502 -430q2 0 2 -2q12 -12 4 -18q-115 -111 -243 -172q-121 -55 -250 -89q-45 -12 -82 -18z" />
<glyph unicode="?" horiz-adv-x="839" d="M164 1188l16 133q70 27 176 27q176 0 259 -93.5t83 -222.5v-2q0 -123 -74.5 -226.5t-230.5 -209.5q-49 -37 -49 -72q0 -29 49 -166q-14 -6 -63 -20q-33 -8 -52.5 17.5t-39.5 78.5l-14 45l-7 29v8q-10 66 41 109q176 147 221 198q78 92 78 199q0 100 -61.5 160.5 t-163.5 60.5q-96 0 -168 -53zM274 127q0 78 111 78h2q104 0 105 -72q0 -49 -34 -99t-79 -50q-47 0 -76 46t-29 97z" />
<glyph unicode="@" horiz-adv-x="1304" d="M170 475q0 225 156 381q154 150 364 150q217 0 331 -124t114 -298q0 -145 -65.5 -224t-143.5 -88q-74 -6 -121 37q-35 35 -45 88h-2q-51 -141 -144 -147q-129 -12 -157 153q-29 164 51 271q63 80 170 86q61 6 121 -17q43 -16 43 -100v-4v-27v-118q0 -82 28 -111 q23 -18 62 -16q37 4 67.5 58t30.5 155q0 133 -85 232t-259 99q-176 0 -294 -122.5t-118 -307.5q0 -170 101.5 -274.5t265.5 -104.5q86 0 170 23l12 4l25 -94q-86 -29 -215 -29q-209 0 -336 129t-127 340zM549 428q8 -49 25.5 -72.5t46.5 -21.5q117 8 131 282v41q0 14 -15 21 q-20 8 -63 4q-82 -6 -110.5 -86t-14.5 -168z" />
<glyph unicode="A" horiz-adv-x="1245" d="M47 27l506 1349h141l504 -1347l-139 -29l-125 350l-4 12q-489 -25 -645 -55l-113 -307zM326 418q182 27 567 47l-213 575q-31 78 -59 193l-7 2q-23 -90 -61 -191z" />
<glyph unicode="B" horiz-adv-x="1153" d="M123 1376h151q152 4 289 4q219 0 326.5 -85t107.5 -238q0 -113 -73.5 -205t-194.5 -133v-2q152 -12 226.5 -102.5t74.5 -211.5q0 -49 -10 -97t-45 -106.5t-88 -102.5t-150.5 -73.5t-222.5 -29.5q-119 0 -260 24q-10 2 -17.5 6.5t-12.5 10.5l-9 11q-4 5 -7 15.5t-4 16.5 t-2 20.5t-2 19.5t-1 21v21v938q0 178 -76 278zM313 1268q16 -117 17 -520q33 2 70.5 6t66.5 6q397 29 397 274q0 115 -71.5 178.5t-253.5 63.5q-160 -4 -226 -8zM330 145q0 -27 24 -32q39 -12 172 -13q188 0 279.5 81t91.5 216q0 262 -405 263q-12 0 -25 -1q-4 0 -137 -14 v-500z" />
<glyph unicode="C" horiz-adv-x="1218" d="M111 707q0 -328 157.5 -525.5t456.5 -197.5q213 0 389 77l-12 117q-156 -80 -338 -80q-254 0 -383 170t-129 459q0 256 118.5 403.5t372.5 147.5q168 0 340 -53l15 121q-168 43 -326 43q-340 0 -500.5 -180t-160.5 -502z" />
<glyph unicode="D" horiz-adv-x="1404" d="M123 1378h149q33 0 138.5 2t173.5 2q344 0 505.5 -154.5t161.5 -498.5q0 -350 -194.5 -542.5t-536.5 -192.5q-135 0 -268 26q-10 2 -17.5 6.5t-12.5 10.5l-9 11q-4 5 -7 15.5t-4 16.5t-2 19.5t-2 19.5t-1 21v20v940q0 178 -74 278zM311 1270q16 -119 17 -1125 q0 -27 24 -32q39 -10 187 -11q276 0 425.5 158t149.5 461q0 293 -128 424t-419 131q-41 0 -256 -6z" />
<glyph unicode="E" horiz-adv-x="1040" d="M123 1378h151q31 0 137.5 2t172.5 2q150 0 293 -6v-106q-110 7 -221 7q-44 0 -89 -1q-39 0 -254 -6q16 -117 17 -518q182 23 473 39v-105q-309 -14 -473 -39v-502q0 -27 24 -32q39 -10 185 -11q170 0 338 7v-109q-180 -6 -357 -6q-133 0 -266 26q-10 2 -17.5 6.5 t-12.5 10.5l-9 11q-4 5 -7 15.5t-4 16.5t-2 19.5t-2 19.5t-1 21v20v940q0 178 -76 278z" />
<glyph unicode="F" horiz-adv-x="964" d="M123 1376h149q227 6 310 6q147 0 295 -6v-106q-156 6 -312 6q-221 -6 -254 -8q16 -117 17 -518q219 29 473 38v-104q-281 -10 -473 -37v-647h-131v1098q0 180 -74 278z" />
<glyph unicode="G" horiz-adv-x="1337" d="M98 702q0 324 165 507.5t493 183.5q190 0 370 -58l-18 -123q-188 72 -369 72q-236 0 -369.5 -134t-133.5 -425q0 -293 125.5 -462t367.5 -169q152 0 293 45v541q-266 -18 -389 -39v104q184 27 518 46v-103v-2v-627q-203 -76 -442 -75q-295 0 -453 193t-158 525z" />
<glyph unicode="H" d="M125 1380h149q41 -55 56 -139v-496q287 43 786 66v569h131v-1136q0 -84 15.5 -134.5t58.5 -105.5h-150q-27 33 -37 57.5t-20 81.5l2 559q-475 -10 -788 -63v-639h-2l-72 12q-10 2 -17.5 6.5t-12.5 10.5l-9 11q-4 5 -7 15.5t-4 16.5t-2 19t-2 19.5t-1 21.5v20v989 q0 82 -16.5 133t-57.5 106z" />
<glyph unicode="I" horiz-adv-x="524" d="M123 1376q43 -55 59.5 -107t16.5 -134v-1135h129v1237q-14 84 -56 139h-149z" />
<glyph unicode="J" horiz-adv-x="665" d="M4 -98v-121q74 -16 139 -17q172 0 249 88.5t77 264.5v1018q0 82 16.5 133t59.5 108h-154q-39 -49 -55 -139l2 -1108q0 -145 -44 -199.5t-140 -54.5q-78 0 -150 27z" />
<glyph unicode="K" horiz-adv-x="1177" d="M121 1380h149q41 -51 58 -139v-334q0 -104 -13 -182q240 383 594 659q115 -18 181 -36q-324 -258 -428 -359q-125 -121 -209 -244q522 -326 669 -706q-29 -6 -68.5 -18.5t-80.5 -20.5q-104 336 -662 692q14 -70 15 -186l2 -2v-504h-2l-72 12q-20 4 -32.5 15.5t-17.5 38 t-5 37t-2 49.5v987q0 82 -16.5 133t-59.5 108z" />
<glyph unicode="L" horiz-adv-x="870" d="M123 1378h147q29 -35 39 -59.5t19 -79.5v-1092q0 -29 24 -32q39 -12 187 -13q145 0 317 7v-107q-143 -7 -273 -7q-33 0 -65 1q-147 0 -266 27q-10 2 -17.5 5t-12.5 9l-9 11q-4 5 -7 16.5t-4 16.5t-2 19.5t-2 19.5t-1 21v21v973q0 84 -15.5 135t-58.5 108z" />
<glyph unicode="M" horiz-adv-x="1832" d="M152 63q-4 19 -4 39q0 24 6 50l170 1224h172l333 -870q61 -182 78 -262h4q16 78 74 243l342 889h178l199 -1349l-135 -27l-129 891q-35 268 -41 350h-4q-6 -31 -36 -106.5t-42 -110.5l-342 -915h-146l-325 852q-10 33 -33 94l-38 106q-15 45 -21 80h-2q-4 -80 -37 -362 l-105 -879l-71 12q-37 8 -45 51z" />
<glyph unicode="N" horiz-adv-x="1462" d="M125 1380h250l602 -802q78 -104 168 -248q-14 449 -15 684v366h132v-1351l-136 -29v117l-651 872q-92 119 -160 236l11 -586l2 -639h-2q-10 2 -35 6l-37 6q-20 4 -32.5 15.5t-17.5 39t-5 37t-2 48.5v989q0 84 -15.5 134t-56.5 105z" />
<glyph unicode="O" d="M100 705q0 -324 155 -522.5t450 -198.5q270 0 455.5 205.5t185.5 541.5q0 324 -160 493t-447 169q-276 0 -457.5 -178t-181.5 -510zM242 731q0 264 138 407.5t343 143.5q229 0 355 -145.5t126 -427.5q0 -272 -142 -442.5t-341 -170.5q-231 0 -355 177t-124 458z" />
<glyph unicode="P" horiz-adv-x="1062" d="M127 1376q188 8 387 8q223 0 346 -105t123 -280q0 -199 -150.5 -322.5t-375.5 -123.5q-70 0 -140 10q0 -117 -5 -258t-11 -223l-6 -82h-129q4 68 9 176.5t14.5 349t9.5 369.5l2 244q0 82 -15.5 132t-58.5 105zM315 1272q15 -114 16 -355q0 -109 -3 -245q68 -10 139 -10 q176 2 277.5 88t101.5 227q0 301 -357 301q-129 -4 -174 -6z" />
<glyph unicode="Q" horiz-adv-x="1443" d="M102 705q0 332 180.5 510t456.5 178q287 0 447 -169t160 -493q0 -319 -166 -520t-418 -223q-16 -29 -17 -54q0 -170 175 -170q90 0 157 74l56 -80q-84 -104 -215 -104q-139 0 -214 65.5t-75 188.5q0 51 26 78q-272 18 -412.5 213t-140.5 506zM242 731q0 -281 123.5 -458 t355.5 -177q199 0 341 170t142 443q0 283 -125 428t-356 145q-205 0 -343 -143.5t-138 -407.5z" />
<glyph unicode="R" horiz-adv-x="1114" d="M123 1380h149q152 4 291 4q213 0 305.5 -82.5t92.5 -238.5q0 -127 -67 -227.5t-210 -145.5q-45 -14 -125 -26q76 -94 111 -148l344 -483l-152 -29l-442 645q-29 -2 -92 -2v-647h-2l-72 12q-20 4 -32.5 15.5t-17.5 39t-5 37t-2 48.5v950q0 180 -74 278zM313 1274 q14 -115 15 -520q25 0 139 12q190 14 274 78.5t84 195.5q0 121 -55 180.5t-231 59.5q-17 0 -226 -6z" />
<glyph unicode="S" horiz-adv-x="1032" d="M47 328q0 63 25 137l121 -25q-2 -2 -3 -8q-18 -70 -18 -88q0 -102 70.5 -172t222.5 -70q162 0 247 93.5t85 222.5q0 51 -19.5 91t-45 63.5t-76 44t-83.5 28.5l-94 23q-68 14 -109.5 25.5t-98 36t-87 57t-53 87t-22.5 125.5q0 174 135 283t364 109q92 0 215 -25l-6 -125 q-145 43 -233 43q-160 0 -251 -72.5t-91 -191.5q0 -51 20.5 -92t45 -63.5t76.5 -43t84 -29t97.5 -22.5t108.5 -26.5t97 -37t85 -56.5t53.5 -85t22.5 -121q0 -186 -126 -323t-364 -137q-186 0 -290.5 91t-104.5 253z" />
<glyph unicode="T" horiz-adv-x="1064" d="M39 1204v107q152 23 485.5 49t497.5 35v-111q-158 -4 -426 -22v-1262h-129v1251q-281 -20 -428 -47z" />
<glyph unicode="U" horiz-adv-x="1435" d="M125 1376q43 -55 58.5 -106t15.5 -135v-682q0 -76 11 -137.5t44 -126t86 -107.5t145.5 -70.5t214.5 -27.5q266 0 401.5 137t135.5 399v856h-129v-868q0 -225 -96.5 -321.5t-298.5 -96.5q-115 0 -193 28.5t-118 84t-56 118t-16 146.5v770q-14 84 -56 139h-149z" />
<glyph unicode="V" horiz-adv-x="1249" d="M49 1352l135 24l340 -950q0 -4 4 -14q47 -127 68 -215q4 -16 18 -19q10 -6 27 6q162 174 240 340q129 272 159 525q3 30 3 58q0 70 -18 123q-26 75 -83 152h143q35 -45 48.5 -81.5t25.5 -114.5q7 -37 7 -80q0 -89 -28 -205q-42 -172 -86 -276.5t-89 -192.5 q-70 -133 -152 -241.5t-131 -154.5t-64 -46q-8 0 -28 4q-10 4 -39 6z" />
<glyph unicode="W" horiz-adv-x="1914" d="M92 1350l137 26l267 -950l4 -14q43 -158 49 -215q4 -14 16 -19q16 -6 29 6q117 106 205 340q96 260 102 500l-16 59l-37 126l-23 81l138 17q25 -41 45 -121q14 -47 16 -99l184 -661l4 -14q41 -135 52 -215q0 -14 14 -19q18 -6 31 6q115 106 204 340q102 274 103 525v12 q0 98 -31 169q-33 75 -98 152h141q39 -43 54.5 -77.5t39.5 -118.5q19 -68 19 -156q0 -105 -27 -239q-35 -162 -110 -361q-55 -129 -134 -237.5t-132.5 -155.5t-69.5 -47q-12 0 -29 4q-14 4 -39 6l-209 715l-2 6l-4 12l-2 -12l-2 -8q-41 -162 -90 -283q-55 -129 -134 -237.5 t-133.5 -155.5t-70.5 -47q-8 0 -29 4q-12 4 -39 6z" />
<glyph unicode="X" horiz-adv-x="1183" d="M-4 -96q133 365 424 817l10 16l31 47l-367 566l135 26l308 -483l92 125q43 57 89 111l69 82l78 87l69 76l131 -24q-279 -311 -451 -555l504 -768l-143 -27l-436 684q-211 -326 -365 -760z" />
<glyph unicode="Y" horiz-adv-x="1050" d="M39 1350l127 26l260 -547q66 -133 86 -198q8 -25 33 -8q94 68 172 215q92 178 114 333q4 29 5 55q0 32 -8 57q-13 44 -52 97h139q33 -47 43 -120q2 -20 3 -41q0 -83 -38 -193q-48 -137 -112 -250q-59 -104 -120.5 -176t-98.5 -98v-502h-129v481z" />
<glyph unicode="Z" horiz-adv-x="1105" d="M45 -55q-2 63 47 141l635 981l127 186l-2 7q-156 -4 -332 -5h-403v115h884v-92l-669 -1030q-61 -96 -88 -133h15q75 0 177 -18q113 -19 195 -37.5t192 -23.5q16 -1 31 -1q91 0 156 26v-118q-63 -26 -152 -27q-15 0 -31 1q-109 5 -189.5 22.5t-191 38t-188.5 20.5 q-94 0 -213 -53z" />
<glyph unicode="[" horiz-adv-x="651" d="M197 -281v1973v-2v2q70 6 181 -11.5t204 -54.5l-19 -96q-121 49 -248 59v-1767q127 10 248 59l19 -96q-92 -37 -203.5 -54.5t-181.5 -11.5z" />
<glyph unicode="\" horiz-adv-x="712" d="M92 1225l440 -1159q12 4 32 14t26 12q47 23 4 129l-383 1004h-119z" />
<glyph unicode="]" horiz-adv-x="651" d="M66 -215l18 96q125 -49 248 -59v1767q-123 -10 -248 -59l-18 96q92 39 203.5 55.5t183.5 10.5v-1973q-72 -6 -183.5 11.5t-203.5 54.5z" />
<glyph unicode="^" horiz-adv-x="1013" d="M244 1227l260 196l270 -190l-10 -14l-129 -15l-135 96l-125 -94l-125 15z" />
<glyph unicode="_" horiz-adv-x="1024" d="M0 -516h1024v98l-901 2q-113 0 -119 -49q-4 -41 -4 -51z" />
<glyph unicode="`" horiz-adv-x="749" d="M250 1335l80 90l243 -225l-6 -8l-192 45z" />
<glyph unicode="a" horiz-adv-x="999" d="M109 225q0 156 161.5 262.5t462.5 135.5v73q0 115 -55 173q-53 56 -178 57h-8q-172 0 -310 -90l-14 116q166 78 348 78q346 0 346 -307v-459q0 -90 17.5 -146.5t62.5 -117.5h-162q-29 39 -40 64.5t-19 80.5l-4 2q-106 -164 -332 -163q-123 0 -199.5 62t-76.5 179z M240 250q0 -74 48 -117t128 -43q113 0 215 58.5t102 162.5v199v16q-274 -31 -383.5 -107.5t-109.5 -168.5z" />
<glyph unicode="b" horiz-adv-x="1161" d="M141 1489h148q41 -51 57 -141l-2 -394q0 -106 -18 -182l6 -2q43 121 137 189.5t217 68.5q180 0 277.5 -121t97.5 -356q0 -270 -139.5 -416.5t-376.5 -146.5q-150 0 -273 24q-39 8 -47 42t-8 98l-2 1093q0 84 -15.5 135.5t-58.5 108.5zM344 143q0 -25 25 -30 q76 -25 188 -25q369 0 369 451q0 387 -260 387q-102 0 -178 -73t-110 -170t-34 -194v-346z" />
<glyph unicode="c" horiz-adv-x="907" d="M96 528q2 -541 434 -540q158 0 310 59l-13 113q-119 -61 -270 -62q-180 0 -252 113t-72 319q0 174 89.5 285t252.5 111q127 0 246 -49l15 114q-117 35 -246 35q-236 0 -365 -139.5t-129 -358.5z" />
<glyph unicode="d" horiz-adv-x="1165" d="M100 461q0 270 139.5 416.5t376.5 146.5q106 0 199 -10q2 -4 7 -16.5t9 -18.5h5q-18 78 -19 184v185q14 86 55 141h148q-43 -59 -59.5 -110.5t-16.5 -133.5v-981q0 -92 17.5 -148.5t64.5 -115.5h-164q-43 57 -59 143l-6 2q-102 -162 -326 -161q-184 0 -277.5 125 t-93.5 352zM238 473q0 -385 258 -385q113 0 216 58.5t103 162.5v199v364q0 23 -27 31q-90 20 -184 21q-366 0 -366 -451z" />
<glyph unicode="e" horiz-adv-x="1030" d="M217 872q117 158 318 158q195 0 292 -115.5t97 -291.5q0 -39 -4 -68q-457 -10 -684 -55l-2 -42q0 -366 348 -366q164 0 295 66l10 -115q-145 -59 -328 -59q-227 0 -345 121q-116 120 -116 352q0 254 119 415zM240 573q82 20 219 41t233 31l96 10q0 7 1 14q0 114 -68 186 q-72 77 -195 77q-115 0 -193.5 -94.5t-92.5 -264.5z" />
<glyph unicode="f" horiz-adv-x="708" d="M86 815q34 -6 67 -6q48 0 95 12q8 -113 8 -343t-4 -404l-4 -176h127q11 338 11 576.5t-11 377.5q47 8 125 14t133 8l55 3v110q-209 -6 -313 -26v96q0 342 239 342q94 0 164 -23l15 111q-84 18 -168 18q-176 0 -276.5 -119.5t-100.5 -332.5v-123q-53 -14 -98 -14 q-34 0 -64 8v-109z" />
<glyph unicode="g" horiz-adv-x="1140" d="M115 461q0 270 140 417.5t384 147.5q70 0 213 -12q8 18 35 55h149q-43 -55 -59 -107.5t-16 -134.5v-202v-451q0 -117 -52.5 -236.5t-141.5 -219t-224 -162t-285 -62.5q-43 0 -113 8l9 123q55 -14 114 -14q264 6 422 198.5t156 473.5l-4 2q-45 -123 -141.5 -212 t-208.5 -89q-180 0 -278.5 120.5t-98.5 356.5zM252 473q0 -385 260 -385q102 0 178 72.5t108.5 170t32.5 193.5v350q0 27 -26 31q-82 18 -187 19q-172 0 -269 -111t-97 -340z" />
<glyph unicode="h" horiz-adv-x="1204" d="M139 1491h148q41 -51 57 -139v-373q0 -133 -16 -201l4 -2q43 119 139 187.5t227 68.5q305 0 306 -325v-465q0 -84 15 -135.5t58 -106.5h-147q-41 55 -56 139v520q0 135 -45 202t-159 67q-143 0 -234.5 -125t-91.5 -318v-485h-2l-72 12q-10 2 -17 6.5t-12 10.5l-10 11 q-4 5 -7 15.5t-4 16.5t-2 20t-2 19.5t-1 21.5v21v1095q0 142 -76 242z" />
<glyph unicode="i" horiz-adv-x="524" d="M125 1016q43 -55 59.5 -107.5t16.5 -134.5v-774h129v877q-16 88 -56 139h-149zM172 1323q0 -43 25.5 -82t64.5 -39q37 0 65.5 42t28.5 85q0 61 -88 62q-96 0 -96 -68z" />
<glyph unicode="j" horiz-adv-x="573" d="M-78 -508l15 115q68 -25 131 -25q106 0 143 55.5t37 215.5v1021q14 86 55 140h148q-43 -55 -58.5 -106.5t-15.5 -135.5v-911q0 -207 -70.5 -297t-249.5 -90q-78 0 -135 18zM221 1323q0 68 96 68q88 0 89 -62q0 -43 -29 -85t-66 -42q-39 0 -64.5 39t-25.5 82z" />
<glyph unicode="k" horiz-adv-x="987" d="M141 1491h150q41 -55 55 -139v-541q0 -129 -14 -201v2q209 276 399 441q31 -4 158 -39q-233 -158 -428 -383q168 -143 267 -295t177 -336h-141q-98 287 -430 582q12 -74 12 -172v-2v-408h-2l-72 12q-10 2 -17 6.5t-12 10.5l-10 11q-4 5 -7 15.5t-4 16.5t-2 20t-2 19.5 t-1 21.5v21v1095q0 82 -16.5 133.5t-59.5 108.5z" />
<glyph unicode="l" horiz-adv-x="540" d="M139 1489h150q41 -55 55 -139v-1350q-37 4 -74 12q-20 4 -31.5 14.5t-16.5 38t-5 37t-2 50.5v1095q0 82 -16.5 134.5t-59.5 107.5z" />
<glyph unicode="m" horiz-adv-x="1843" d="M150 1012h149q27 -35 37 -59.5t18 -80.5v-84l6 -2q88 246 345 246q84 0 144 -27.5t88 -71.5t39 -81t11 -72q37 94 127 173t232 79q299 0 299 -327l-3 -465q0 -82 16.5 -133.5t57.5 -106.5h-145q-27 33 -36 57.5t-19 81.5v518q0 133 -43 202t-154 69q-129 0 -224.5 -123 t-95.5 -324v-481h-129v659q0 127 -39.5 198t-154.5 71q-137 0 -230.5 -126t-93.5 -321l2 -481q-37 4 -73 12q-10 2 -17.5 5t-12.5 10l-9 11q-4 5 -7.5 16.5t-4.5 16.5t-2 19t-2 19.5t-1 21.5v21v618q0 84 -16 135.5t-59 106.5z" />
<glyph unicode="n" horiz-adv-x="1214" d="M152 1012h147q27 -33 36 -57.5t19 -82.5l2 -84l4 -2q90 246 349 246q307 0 307 -327l-2 -465q0 -82 16.5 -133.5t56.5 -106.5h-145q-27 33 -36 57.5t-19 81.5v518q0 135 -47 203t-160 68q-137 0 -231.5 -126t-94.5 -321v-481q-39 4 -71 12q-27 4 -40.5 29t-14.5 45t-1 66 l-2 618q0 84 -15 135.5t-58 106.5z" />
<glyph unicode="o" horiz-adv-x="1105" d="M92 528q0 -262 118 -403t322 -141q215 0 346.5 165.5t131.5 397.5q0 483 -443 483q-221 0 -348 -141.5t-127 -360.5zM227 539q0 199 93.5 293t232.5 94q324 0 324 -385q0 -213 -93.5 -332t-228.5 -119q-154 0 -241 122t-87 327z" />
<glyph unicode="p" horiz-adv-x="1187" d="M133 967h143q27 -35 33 -50.5t10 -68.5q2 -16 2 -30q0 -21 -4 -36l5 -2q43 115 137 182.5t215 67.5q180 0 277.5 -121t97.5 -356q0 -268 -137.5 -407.5t-379.5 -139.5q-104 0 -208 55l-25 -575h-129l10 180q6 111 15.5 354.5t9.5 372.5v338q0 140 -72 236zM328 121 q90 -31 217 -31q367 0 366 451q0 385 -258 385q-150 0 -235.5 -139.5t-85.5 -297.5q1 -41 0 -84q1 -130 -4 -284z" />
<glyph unicode="q" horiz-adv-x="1142" d="M123 459q0 272 139 418.5t381 146.5q156 0 268 -23q10 -2 17.5 -6t12.5 -10l9 -11q4 -5 7.5 -15.5t4.5 -16.5t2 -19.5t2 -19.5t1 -21v-20q3 -116 3 -276q0 -241 -7 -582l-23 -520h-129q18 350 27 629q0 100 14 170l-4 2q-45 -123 -140.5 -212t-209.5 -89 q-180 0 -277.5 119.5t-97.5 355.5zM258 471q0 -385 260 -385q147 0 233.5 140.5t86.5 295.5v2v346q0 25 -25 31q-76 23 -188 23q-174 0 -270.5 -111t-96.5 -342z" />
<glyph unicode="r" horiz-adv-x="770" d="M168 1001h145q37 -49 41 -116q-2 -68 -10 -105l4 -2q33 125 123 197q72 57 184 57q29 0 60 -4l-4 -125q-36 6 -68 6q-125 0 -192 -89q-84 -112 -84 -374v-446h-125v764q0 80 -16.5 131t-57.5 106z" />
<glyph unicode="s" horiz-adv-x="882" d="M90 260q0 -121 73 -196.5t228 -75.5q182 0 280.5 103.5t98.5 246.5q0 96 -53 151.5t-129 74t-151 33.5t-128 52t-53 109q0 82 61.5 128t178.5 46q102 0 213 -35l6 115q-102 23 -201 22q-184 0 -285.5 -81t-101.5 -210q0 -100 52 -157.5t127 -75.5t150.5 -32.5t128 -51.5 t52.5 -107q0 -94 -59.5 -160.5t-169.5 -66.5q-98 0 -150.5 50.5t-52.5 125.5q0 14 20 90l-110 21q-25 -60 -25 -119z" />
<glyph unicode="t" horiz-adv-x="755" d="M74 866q34 -7 68 -7q47 0 94 13v-591q0 -160 54 -227.5t199 -67.5q92 0 185 18v115q-63 -18 -150 -19q-96 0 -129 49.5t-33 192.5v559q47 8 125 15.5t131 9.5l56 2v110q-207 -6 -312 -26v268l-126 -35v-264q-54 -14 -99 -14q-34 0 -63 8v-109z" />
<glyph unicode="u" horiz-adv-x="1239" d="M152 1014h147q41 -49 55 -140v-520q0 -133 47.5 -200.5t159.5 -67.5q137 0 231.5 126t94.5 320v482h127v-770q0 -82 16.5 -133.5t59.5 -110.5h-148q-41 51 -57 141v84l-4 2q-90 -246 -349 -245q-307 0 -307 327v428q1 179 -73 277z" />
<glyph unicode="v" horiz-adv-x="964" d="M27 1014l385 -1014q70 -8 86 -8q10 0 50 33.5t103.5 114.5t114.5 179q152 307 152 494q0 34 -5 64q-14 86 -55 141h-143q47 -63 64 -114q12 -34 12 -81q0 -22 -3 -47q-18 -186 -116 -385q-57 -121 -176 -250q-16 -16 -21 9q-12 55 -53 167l-248 697h-147z" />
<glyph unicode="w" horiz-adv-x="1619" d="M45 1014h148l219 -697q23 -59 45 -167q6 -20 22 -9q115 125 174 250q102 209 117 348q2 4 2 11q-23 111 -72 213h2l117 14q53 -68 64 -135q2 -8 3 -23.5t1 -23.5l174 -478q23 -59 45 -167q4 -23 22 -9q121 137 175 250q98 199 116 385q3 25 3 47q0 47 -12 81 q-17 50 -64 114h143q41 -51 57 -141q5 -30 5 -64q0 -90 -35 -204q-49 -157 -119 -290q-51 -98 -114.5 -179t-103.5 -114.5t-51 -33.5q-18 0 -88 8l-196 549q-47 -137 -94 -230q-51 -98 -115 -179t-103.5 -114.5t-52.5 -33.5q-18 0 -88 8z" />
<glyph unicode="x" horiz-adv-x="1048" d="M35 -72q102 229 383 619l-338 467h162l254 -365q119 143 335 365h150q-279 -279 -416 -451l426 -563h-174l-328 463q-162 -229 -292 -516z" />
<glyph unicode="y" horiz-adv-x="950" d="M-375 -463l21 121q45 -12 112 -12q346 2 660 354l-385 1012h147l248 -697q51 -141 61 -186q2 -10 10.5 -14t14.5 4q66 70 166 268q96 203 115 387q3 25 2 47q0 47 -12 81q-17 50 -64 114h143q29 -35 39 -60.5t19 -81.5q6 -32 5 -67q0 -189 -155 -492q-41 -82 -70 -125 q-94 -162 -234 -306t-337 -249.5t-391 -105.5q-66 0 -115 8z" />
<glyph unicode="z" horiz-adv-x="911" d="M92 8q-2 68 55 150l496 745l-2 4q-139 -4 -299 -4h-192v115h641v-88l-504 -760q8 1 17 0q30 0 79 -4q55 -8 115 -33q78 -33 131 -33q68 0 145 41l29 -104q-86 -49 -174 -49q-74 0 -168 37q-96 35 -156 34q-96 0 -213 -51z" />
<glyph unicode="{" horiz-adv-x="667" d="M61 768q0 -47 45 -53q100 -12 139.5 -62.5t39.5 -156.5v-416q0 -360 274 -361q6 12 21 38l20 36q-106 0 -150 66.5t-44 212.5v415q0 119 -49.5 195t-143.5 90v2q193 39 193 283v282q0 143 45 207t153 64l-31 80q-289 0 -288 -359v-284q0 -121 -45 -167t-179 -55v-57z" />
<glyph unicode="|" horiz-adv-x="575" d="M236 -389q0 -37 2 -56.5t13 -40t34 -22.5q41 -4 55 -4l-2 2048h-102v-1925z" />
<glyph unicode="}" horiz-adv-x="659" d="M78 1610q109 0 153.5 -63.5t44.5 -207.5v-282q0 -244 191 -283v-2q-190 -31 -191 -285v-415q0 -145 -44 -212t-152 -67l20 -36q14 -26 21 -38q274 0 274 361v416q0 106 40 156t140 63q45 6 46 53v57q-133 8 -179.5 54.5t-46.5 167.5v284q0 358 -286 359z" />
<glyph unicode="~" horiz-adv-x="1114" d="M154 535l2 114q74 33 137 33q111 0 237.5 -69.5t214.5 -69.5q96 0 203 98q23 -41 11.5 -87t-52.5 -69q-88 -51 -176 -51q-113 0 -244 69.5t-204 69.5q-66 1 -129 -38z" />
<glyph unicode="&#xa1;" horiz-adv-x="612" d="M195 862q0 49 33.5 98.5t78.5 49.5q47 0 77 -45t30 -97q0 -80 -113 -80h-2q-104 0 -104 74zM229 -344l23 1010h2l57 -13q29 -8 38 -39.5t13 -85.5v-14l21 -858h-154z" />
<glyph unicode="&#xa2;" horiz-adv-x="796" d="M92 899q0 375 328 416v117h67v-111h15q104 0 203 -25l-11 -77q-104 35 -209 34h-2l-6 -77h-47l-4 73q-125 -18 -186.5 -107t-61.5 -229q0 -158 62.5 -259t187.5 -126l2 37h45l4 -41q4 0 10.5 -1t8.5 -1q115 0 209 49l8 -71q-104 -47 -228 -47v-111h-67v115 q-160 18 -244 137t-84 305z" />
<glyph unicode="&#xa3;" horiz-adv-x="757" d="M117 504q0 31 20 49q78 66 113 127t35 141q0 25 -6 86q-102 -8 -154 -14v70q43 6 147 14q-20 158 -20 197q0 131 58.5 188t174.5 57q57 0 107 -12l-6 -72q-55 14 -107 15q-70 0 -105.5 -44t-35.5 -120q0 -33 18 -203q160 10 179 10v-73q-76 0 -170 -7q4 -66 4 -82 q0 -172 -142 -292q-6 -6 -2 -13q29 -12 111 -12q135 0 287 4v-72q-158 -8 -299 -4q-92 0 -181 17q-26 6 -26 45z" />
<glyph unicode="&#xa4;" horiz-adv-x="1069" d="M133 756v71l98 13q-6 43 -6 92q0 29 2 45q-61 -6 -94 -12v71q41 6 103 13q53 344 436 344q111 0 219 -29l-8 -82q-121 37 -230 37q-272 0 -323 -262q219 20 440 33l-10 -74q-195 -4 -438 -31v-39q0 -53 6 -98q264 23 397 29l-10 -72q-166 -6 -375 -27q72 -256 328 -256 q125 0 227 53l10 -79q-123 -51 -264 -52q-162 0 -262 86t-135 238z" />
<glyph unicode="&#xa5;" horiz-adv-x="868" d="M100 1372l86 19l176 -369q41 -82 60 -135q4 -16 20 -4q66 45 117 145q61 121 78 223q12 74 -37 142h92q25 -31 31 -82q14 -117 -100 -326q-23 -43 -64 -96l75 5q46 3 56 3v-72q-47 -2 -126 -8t-89 -6v-115q160 12 207 15v-72q-102 -4 -207 -12v-191h-88v185l-97 -11 q-77 -8 -112 -12v72q184 18 209 20v113q-172 -14 -217 -21v72q90 10 176 16z" />
<glyph unicode="&#xa7;" horiz-adv-x="776" d="M164 784q0 102 76 172q-31 55 -31 109q0 96 58.5 153.5t158.5 57.5q51 0 88 -10l16 -4l-2 -19l-8 -67l-2 -23l-22 6q-33 10 -76 10q-90 0 -90 -96q0 -27 19.5 -63.5t37.5 -60.5l59 -72q49 -57 76 -93t53.5 -92.5t26.5 -107.5q0 -98 -74 -168q35 -61 35 -117 q0 -84 -59.5 -147.5t-167.5 -63.5q-33 0 -94 10l-19 4l2 19l11 74l2 24l24 -8q43 -14 80 -14q96 0 96 98q0 61 -119 201q-49 57 -75.5 92t-53 91t-26.5 105zM260 795q0 -18 4 -37t16.5 -42.5t21.5 -38.5t34 -46l36 -45l45 -56l48 -57q41 33 41 102q0 47 -26.5 93.5t-89 121 t-87.5 109.5q-43 -32 -43 -104z" />
<glyph unicode="&#xa8;" horiz-adv-x="1118" d="M287 1358q0 31 19.5 41t60.5 10q78 0 77 -51q0 -37 -23.5 -72t-53.5 -35q-33 0 -56.5 35t-23.5 72zM641 1358q0 51 78 51q80 0 80 -51q0 -37 -23.5 -72t-56.5 -35q-31 0 -54.5 35t-23.5 72z" />
<glyph unicode="&#xa9;" horiz-adv-x="1540" d="M90 725q0 276 195.5 456.5t480.5 180.5t480.5 -178t195.5 -455q0 -283 -200 -497t-476 -214q-285 0 -480.5 210t-195.5 497zM199 729q0 -240 168 -425t399 -185q233 0 400 183t167 423q0 231 -163.5 384t-403.5 153t-403.5 -150t-163.5 -383zM475 707q0 162 95.5 258 t254.5 96q92 0 172 -25l9 -2l-2 -8l-11 -78v-12l-10 4q-82 35 -168 35q-117 0 -172 -78t-55 -188q0 -154 51 -222.5t164 -68.5q100 0 182 41l12 6v-12l11 -78v-6l-7 -2q-102 -43 -217 -43q-309 0 -309 383z" />
<glyph unicode="&#xaa;" horiz-adv-x="755" d="M113 883q0 104 106.5 171.5t300.5 88.5v35q0 68 -31 98q-33 33 -112 33q-106 0 -197 -56l-16 -10l-2 21l-10 71l-2 11l10 4q111 49 233 49q238 0 238 -205v-287q0 -90 51 -155l16 -23h-139l-4 6q-31 39 -37 74q-74 -90 -213 -90q-88 0 -140 44t-52 120zM223 899 q0 -41 28 -64.5t75 -23.5q70 0 132 34t62 91v121q-297 -35 -297 -158z" />
<glyph unicode="&#xab;" horiz-adv-x="1048" d="M127 496v10v6q6 4 18.5 15.5t18.5 17.5l301 258l10 8l8 -12l41 -60l6 -10l-8 -8q-199 -162 -270 -234q86 -76 158 -110q102 -41 108 -43l14 -6l-8 -13l-41 -61l-6 -8l-96 41q-76 41 -138.5 89t-89 80t-26.5 40zM479 496v10v6q6 4 19.5 16.5t17.5 16.5l301 258l10 8l9 -12 l41 -60l8 -10l-11 -8q-199 -162 -270 -234q94 -80 158 -110l108 -43l17 -6l-10 -13l-41 -61l-7 -8l-96 41q-76 41 -138.5 89t-89 80t-26.5 40z" />
<glyph unicode="&#xac;" horiz-adv-x="1040" d="M84 557v37h852v-385q-10 -66 -43 -109h-117q57 76 58 187l-7 198h-671q-29 0 -50.5 21.5t-21.5 50.5z" />
<glyph unicode="&#xad;" horiz-adv-x="669" d="M100 573v103q197 20 467 37v-105q-231 -10 -467 -35z" />
<glyph unicode="&#xae;" horiz-adv-x="1148" d="M145 1124q0 174 123 283t305 109q186 0 308.5 -106.5t122.5 -285t-130.5 -322t-300.5 -143.5q-180 0 -304 140.5t-124 324.5zM242 1128q0 -143 98 -260.5t233 -117.5q137 0 234.5 113.5t97.5 256.5q0 135 -95 220t-236.5 85t-236.5 -82t-95 -215zM410 1329h32h2h2h3h2h2 h2h2h2h4h2h4h4h16h21h84q145 0 145 -119q0 -106 -100 -135q-6 -2 -16 -4q14 -16 20 -27l96 -155l15 -21l-25 -6l-49 -8l-12 -2l-6 8l-121 201l-17 -2v-191v-16h-18q-4 0 -12.5 1t-12.5 3q-31 6 -30 57v5v305q0 51 -21 80zM522 1262q6 -57 2 -134v-8q4 0 6 2q12 0 21 2 q111 8 111 78q0 23 -3.5 34t-19.5 19.5t-51 8.5q-21 -2 -66 -2z" />
<glyph unicode="&#xaf;" horiz-adv-x="847" d="M193 1329v29q203 25 458 35v-105q-193 -10 -387 -24q-31 -2 -51 16t-20 49z" />
<glyph unicode="&#xb0;" horiz-adv-x="716" d="M127 1278q0 117 66.5 171t166.5 54q109 0 168.5 -43t59.5 -160q0 -119 -73 -199.5t-169 -80.5q-94 0 -156.5 68.5t-62.5 189.5zM217 1290q0 -90 34 -144t101 -54q63 0 103.5 58t40.5 142q0 82 -33 111t-109 29q-61 0 -99 -35t-38 -107z" />
<glyph unicode="&#xb1;" horiz-adv-x="974" d="M92 643v107q125 18 342 36v338h121v-327q129 10 326 20l-2 -110q-109 0 -324 -15v-344q-20 -2 -60 -5t-61 -5v346q-221 -18 -342 -41zM252 76v104q190 20 467 37v-104q-246 -10 -467 -37z" />
<glyph unicode="&#xb2;" horiz-adv-x="989" d="M90 0q-4 70 53 152l254 294q166 195 227.5 318t61.5 250q0 119 -67.5 195.5t-200.5 76.5q-139 0 -281 -88l-18 115q154 80 330 80t276 -100.5t100 -260.5q0 -145 -74.5 -286.5t-267.5 -364.5l-190 -223q59 -4 147 -19.5t153.5 -29t145.5 -13.5t142 25v-121 q-100 -39 -258 -15.5t-271.5 48t-257.5 -28.5z" />
<glyph unicode="&#xb3;" horiz-adv-x="948" d="M129 2l14 119q68 -25 191 -25q152 0 250 101.5t98 232.5q0 305 -432 270l-27 105q233 -6 330.5 65.5t97.5 223.5q0 104 -63.5 147t-188.5 43q-129 0 -247 -65l-11 114q135 57 279 58q367 0 366 -279q0 -119 -63.5 -207t-175.5 -131v-4q119 -16 195.5 -108.5t76.5 -223.5 q0 -184 -142 -319t-353 -135q-115 0 -195 18z" />
<glyph unicode="&#xb4;" horiz-adv-x="788" d="M217 1198l242 225l80 -88l-123 -100l-193 -43z" />
<glyph unicode="&#xb5;" horiz-adv-x="1183" d="M123 1012q76 -104 76 -279v-428v-819h127v356q0 199 -7 234l5 2q25 -37 81 -67.5t101 -30.5q256 0 346 243l4 -2l2 -84q14 -86 55 -139h148q-43 55 -58.5 106.5t-15.5 135.5v770h-129v-482q0 -195 -94 -320.5t-229 -125.5q-82 0 -145.5 72.5t-63.5 201.5v514 q-14 90 -56 142h-147z" />
<glyph unicode="&#xb6;" horiz-adv-x="1101" d="M152 963q0 178 119.5 297.5t312.5 119.5h55q-41 -55 -55 -139v-706q-209 -2 -320.5 120t-111.5 308zM401 -63q76 -27 152 -27q94 0 138 54t44 200v1077q14 84 56 139h153q-43 -57 -59.5 -108t-16.5 -135v-985q0 -176 -77.5 -264.5t-247.5 -88.5q-63 0 -142 17v121z" />
<glyph unicode="&#xb7;" horiz-adv-x="428" d="M84 627q0 -55 34 -106.5t87 -51.5q51 0 90 54.5t39 109.5q0 90 -123 90q-127 0 -127 -96z" />
<glyph unicode="&#xb8;" horiz-adv-x="854" d="M352 -287q16 -29 41 -55q141 76 197.5 179.5t23.5 195.5q-10 25 -83.5 9.5t-100.5 -50.5q41 -8 54.5 -26.5t13.5 -61.5q-1 -95 -146 -191z" />
<glyph unicode="&#xb9;" horiz-adv-x="686" d="M41 1305q102 41 226 59t204 12v-1376h-133v1264q-143 -14 -277 -68z" />
<glyph unicode="&#xba;" horiz-adv-x="849" d="M113 1092q0 150 85 228.5t228 78.5q61 0 104 -8.5t93.5 -34t77 -86t26.5 -154.5q0 -166 -91 -281.5t-233 -115.5q-135 0 -212.5 98.5t-77.5 274.5zM233 1106q0 -111 42 -199t139 -88q82 0 136 81t54 202q0 197 -182 196q-84 0 -136.5 -40.5t-52.5 -151.5z" />
<glyph unicode="&#xbb;" horiz-adv-x="1048" d="M164 328l8 -13l43 -61l4 -8l96 41q78 41 140.5 89t89 79.5t26.5 40.5l-2 4v6v6q-6 4 -18 15.5t-19 17.5l-299 258l-12 8l-6 -12l-43 -60l-6 -10l8 -8q199 -162 270 -234q-86 -76 -155 -110q-92 -37 -111 -43zM516 328l10 -13l41 -61l6 -8l97 41q76 41 138 89t89 79.5 t27 40.5v10q0 4 -2 6q-20 20 -35 33l-301 258l-11 8l-8 -12l-41 -60l-8 -10l10 -8q199 -162 271 -234q-96 -82 -158 -110q-96 -39 -109 -43z" />
<glyph unicode="&#xbc;" horiz-adv-x="2617" d="M1553 436l596 940h172v-872q219 14 235 14v-110q-158 -4 -235 -11v-397h-127v391q-340 -23 -619 -63zM1682 449q203 23 512 45v753h-2zM713 -113q-41 -102 4 -127q31 -18 49 -24l905 1749l-98 55zM41 1305q102 41 226 59t204 12v-1376h-133v1264q-143 -14 -277 -68z" />
<glyph unicode="&#xbd;" horiz-adv-x="2506" d="M1608 0q-4 70 53 152l254 294q166 195 227.5 318t61.5 250q0 119 -67.5 195.5t-200.5 76.5q-139 0 -281 -88l-18 115q154 80 330 80t276 -100.5t100 -260.5q0 -145 -74.5 -286.5t-267.5 -364.5l-190 -223q59 -4 147 -19.5t153.5 -29t145.5 -13.5t142 25v-121 q-100 -39 -258 -15.5t-271.5 48t-257.5 -28.5zM713 -113q-41 -102 4 -127q31 -18 49 -24l905 1749l-98 55zM41 1305q102 41 226 59t204 12v-1376h-133v1264q-143 -14 -277 -68z" />
<glyph unicode="&#xbe;" horiz-adv-x="2879" d="M1815 436l596 940h172v-872q219 14 235 14v-110q-158 -4 -235 -11v-397h-127v391q-340 -23 -619 -63zM1944 449q203 23 512 45v753h-2zM975 -113q-41 -102 4 -127q31 -18 49 -24l905 1749l-98 55zM129 2l14 119q68 -25 191 -25q152 0 250 101.5t98 232.5q0 305 -432 270 l-27 105q233 -6 330.5 65.5t97.5 223.5q0 104 -63.5 147t-188.5 43q-129 0 -247 -65l-11 114q135 57 279 58q367 0 366 -279q0 -119 -63.5 -207t-175.5 -131v-4q119 -16 195.5 -108.5t76.5 -223.5q0 -184 -142 -319t-353 -135q-115 0 -195 18z" />
<glyph unicode="&#xbf;" horiz-adv-x="851" d="M143 -37q0 121 75 225.5t231 210.5q47 35 47 72q0 29 -47 166q6 2 19 6l24 7q10 3 18 5q35 10 54.5 -15.5t39.5 -78.5q8 -25 13.5 -45t5.5 -29l2 -8q6 -72 -43 -110l-104 -85q-26 -22 -77 -71t-67.5 -78t-32.5 -72t-16 -90q0 -100 61.5 -161.5t163.5 -61.5q94 0 166 53 l-17 -131q-72 -29 -174 -28q-178 0 -260 93t-82 224v2zM348 860q0 49 34 98.5t79 49.5q47 0 76.5 -45t29.5 -97q0 -78 -112 -78h-2q-105 0 -105 72z" />
<glyph unicode="&#xc0;" horiz-adv-x="1245" d="M47 27l506 1349h141l504 -1347l-139 -29l-125 350l-4 12q-489 -25 -645 -55l-113 -307zM326 418q182 27 567 47l-213 575q-31 78 -59 193l-7 2q-23 -90 -61 -191zM430 1644l80 90l243 -225l-6 -8l-192 45z" />
<glyph unicode="&#xc1;" horiz-adv-x="1245" d="M47 27l506 1349h141l504 -1347l-139 -29l-125 350l-4 12q-489 -25 -645 -55l-113 -307zM326 418q182 27 567 47l-213 575q-31 78 -59 193l-7 2q-23 -90 -61 -191zM506 1507l242 225l80 -88l-123 -100l-193 -43z" />
<glyph unicode="&#xc2;" horiz-adv-x="1245" d="M47 27l506 1349h141l504 -1347l-139 -29l-125 350l-4 12q-489 -25 -645 -55l-113 -307zM326 418q182 27 567 47l-213 575q-31 78 -59 193l-7 2q-23 -90 -61 -191zM366 1536l260 196l271 -190l-11 -14l-129 -15l-135 96l-125 -94l-125 15z" />
<glyph unicode="&#xc3;" horiz-adv-x="1245" d="M47 27l506 1349h141l504 -1347l-139 -29l-125 350l-4 12q-489 -25 -645 -55l-113 -307zM326 418q182 27 567 47l-213 575q-31 78 -59 193l-7 2q-23 -90 -61 -191zM344 1595v107q139 92 311 -7q158 -88 264 25q39 -90 -34.5 -136t-163.5 -28q-37 6 -115 49t-127 43 q-39 -10 -74 -0.5t-61 54.5q139 92 311 -7q158 -88 264 25q39 -90 -34.5 -136t-163.5 -28q-37 6 -115 49t-127 43q-86 -6 -135 -53z" />
<glyph unicode="&#xc4;" horiz-adv-x="1245" d="M47 27l506 1349h141l504 -1347l-139 -29l-125 350l-4 12q-489 -25 -645 -55l-113 -307zM326 418q182 27 567 47l-213 575q-31 78 -59 193l-7 2q-23 -90 -61 -191zM367 1628q0 31 19.5 41t60.5 10q78 0 77 -51q0 -37 -23.5 -72t-53.5 -35q-33 0 -56.5 35t-23.5 72z M721 1628q0 51 78 51q80 0 80 -51q0 -37 -23.5 -72t-56.5 -35q-31 0 -54.5 35t-23.5 72z" />
<glyph unicode="&#xc5;" horiz-adv-x="1245" d="M47 27l506 1349h141l504 -1347l-139 -29l-125 350l-4 12q-489 -25 -645 -55l-113 -307zM326 418q182 27 567 47l-213 575q-31 78 -59 193l-7 2q-23 -90 -61 -191zM436 1568q0 74 54.5 114t136.5 40q86 0 137 -39t51 -115q0 -78 -56.5 -147.5t-131.5 -69.5 q-78 0 -134.5 66.5t-56.5 150.5zM524 1566q0 -45 31 -90t71.5 -45t70.5 45t30 90q0 74 -100 74q-103 0 -103 -74z" />
<glyph unicode="&#xc6;" horiz-adv-x="1591" d="M-76 27l750 1337q-2 2 -4 7t-4 7h149q33 0 138.5 2t172.5 2q145 0 293 -6v-106q-205 8 -309 6q-39 0 -254 -6q18 -133 14 -518q190 23 476 39v-105q-309 -14 -476 -39v-502q0 -25 25 -32q41 -10 186 -11q168 0 338 7v-109q-182 -6 -356 -6q-131 0 -268 26q-27 6 -39.5 31 t-13.5 45.5t-1 63.5v196q-375 -18 -526 -49l-170 -307zM276 418q147 23 465 41v641q0 27 -4 71q-2 14 -4 25.5t-4 18t-4 10.5t-4 6v2l-4 2q-61 -127 -99 -191z" />
<glyph unicode="&#xc7;" horiz-adv-x="1218" d="M111 707q0 -328 157.5 -525.5t456.5 -197.5q213 0 389 77l-12 117q-156 -80 -338 -80q-254 0 -383 170t-129 459q0 256 118.5 403.5t372.5 147.5q168 0 340 -53l15 121q-168 43 -326 43q-340 0 -500.5 -180t-160.5 -502zM545 -287q16 -29 41 -55q141 76 197.5 179.5 t23.5 195.5q-10 25 -84 9.5t-100 -50.5q41 -8 54 -26.5t13 -61.5q0 -95 -145 -191z" />
<glyph unicode="&#xc8;" horiz-adv-x="1040" d="M123 1378h151q31 0 137.5 2t172.5 2q150 0 293 -6v-106q-110 7 -221 7q-44 0 -89 -1q-39 0 -254 -6q16 -117 17 -518q182 23 473 39v-105q-309 -14 -473 -39v-502q0 -27 24 -32q39 -10 185 -11q170 0 338 7v-109q-180 -6 -357 -6q-133 0 -266 26q-10 2 -17.5 6.5 t-12.5 10.5l-9 11q-4 5 -7 15.5t-4 16.5t-2 19.5t-2 19.5t-1 21v20v940q0 178 -76 278zM354 1644l80 90l243 -225l-6 -8l-192 45z" />
<glyph unicode="&#xc9;" horiz-adv-x="1040" d="M123 1378h151q31 0 137.5 2t172.5 2q150 0 293 -6v-106q-110 7 -221 7q-44 0 -89 -1q-39 0 -254 -6q16 -117 17 -518q182 23 473 39v-105q-309 -14 -473 -39v-502q0 -27 24 -32q39 -10 185 -11q170 0 338 7v-109q-180 -6 -357 -6q-133 0 -266 26q-10 2 -17.5 6.5 t-12.5 10.5l-9 11q-4 5 -7 15.5t-4 16.5t-2 19.5t-2 19.5t-1 21v20v940q0 178 -76 278zM426 1507l242 225l80 -88l-123 -100l-193 -43z" />
<glyph unicode="&#xca;" horiz-adv-x="1040" d="M123 1378h151q31 0 137.5 2t172.5 2q150 0 293 -6v-106q-110 7 -221 7q-44 0 -89 -1q-39 0 -254 -6q16 -117 17 -518q182 23 473 39v-105q-309 -14 -473 -39v-502q0 -27 24 -32q39 -10 185 -11q170 0 338 7v-109q-180 -6 -357 -6q-133 0 -266 26q-10 2 -17.5 6.5 t-12.5 10.5l-9 11q-4 5 -7 15.5t-4 16.5t-2 19.5t-2 19.5t-1 21v20v940q0 178 -76 278zM266 1536l260 196l271 -190l-11 -14l-129 -15l-135 96l-125 -94l-125 15z" />
<glyph unicode="&#xcb;" horiz-adv-x="1040" d="M123 1378h151q31 0 137.5 2t172.5 2q150 0 293 -6v-106q-110 7 -221 7q-44 0 -89 -1q-39 0 -254 -6q16 -117 17 -518q182 23 473 39v-105q-309 -14 -473 -39v-502q0 -27 24 -32q39 -10 185 -11q170 0 338 7v-109q-180 -6 -357 -6q-133 0 -266 26q-10 2 -17.5 6.5 t-12.5 10.5l-9 11q-4 5 -7 15.5t-4 16.5t-2 19.5t-2 19.5t-1 21v20v940q0 178 -76 278zM269 1628q0 31 19.5 41t60.5 10q78 0 77 -51q0 -37 -23.5 -72t-53.5 -35q-33 0 -56.5 35t-23.5 72zM623 1628q0 51 78 51q80 0 80 -51q0 -37 -23.5 -72t-56.5 -35q-31 0 -54.5 35 t-23.5 72z" />
<glyph unicode="&#xcc;" horiz-adv-x="524" d="M51 1645l80 90l244 -226l-6 -8l-193 45zM123 1376q43 -55 59.5 -107t16.5 -134v-1135h129v1237q-14 84 -56 139h-149z" />
<glyph unicode="&#xcd;" horiz-adv-x="524" d="M123 1376q43 -55 59.5 -107t16.5 -134v-1135h129v1237q-14 84 -56 139h-149zM143 1507l242 226l80 -88l-123 -101l-192 -43z" />
<glyph unicode="&#xce;" horiz-adv-x="524" d="M4 1536l260 197l271 -191l-11 -14l-129 -15l-135 97l-125 -94l-125 14zM123 1376q43 -55 59.5 -107t16.5 -134v-1135h129v1237q-14 84 -56 139h-149z" />
<glyph unicode="&#xcf;" horiz-adv-x="524" d="M-8 1628q0 31 19.5 41t60.5 10q78 0 78 -51q0 -37 -24 -71.5t-54 -34.5q-33 0 -56.5 34.5t-23.5 71.5zM123 1376q43 -55 59.5 -107t16.5 -134v-1135h129v1237q-14 84 -56 139h-149zM346 1628q0 51 78 51q80 0 80 -51q0 -37 -23.5 -71.5t-56.5 -34.5q-31 0 -54.5 34.5 t-23.5 71.5z" />
<glyph unicode="&#xd0;" horiz-adv-x="1024" />
<glyph unicode="&#xd1;" horiz-adv-x="1462" d="M125 1380h250l602 -802q78 -104 168 -248q-14 449 -15 684v366h132v-1351l-136 -29v117l-651 872q-92 119 -160 236l11 -586l2 -639h-2q-10 2 -35 6l-37 6q-20 4 -32.5 15.5t-17.5 39t-5 37t-2 48.5v989q0 84 -15.5 134t-56.5 105zM437 1595v107q139 92 311 -7 q158 -88 264 25q39 -90 -34.5 -136t-163.5 -28q-37 6 -115 49t-127 43q-39 -10 -74 -0.5t-61 54.5q139 92 311 -7q158 -88 264 25q39 -90 -34.5 -136t-163.5 -28q-37 6 -115 49t-127 43q-86 -6 -135 -53z" />
<glyph unicode="&#xd2;" d="M100 705q0 -324 155 -522.5t450 -198.5q270 0 455.5 205.5t185.5 541.5q0 324 -160 493t-447 169q-276 0 -457.5 -178t-181.5 -510zM242 731q0 264 138 407.5t343 143.5q229 0 355 -145.5t126 -427.5q0 -272 -142 -442.5t-341 -170.5q-231 0 -355 177t-124 458zM539 1645 l79 90l244 -226l-6 -8l-192 45z" />
<glyph unicode="&#xd3;" d="M100 705q0 -324 155 -522.5t450 -198.5q270 0 455.5 205.5t185.5 541.5q0 324 -160 493t-447 169q-276 0 -457.5 -178t-181.5 -510zM242 731q0 264 138 407.5t343 143.5q229 0 355 -145.5t126 -427.5q0 -272 -142 -442.5t-341 -170.5q-231 0 -355 177t-124 458zM641 1507 l242 226l80 -88l-123 -101l-193 -43z" />
<glyph unicode="&#xd4;" d="M100 705q0 -324 155 -522.5t450 -198.5q270 0 455.5 205.5t185.5 541.5q0 324 -160 493t-447 169q-276 0 -457.5 -178t-181.5 -510zM242 731q0 264 138 407.5t343 143.5q229 0 355 -145.5t126 -427.5q0 -272 -142 -442.5t-341 -170.5q-231 0 -355 177t-124 458zM469 1536 l260 197l270 -191l-10 -14l-129 -15l-135 97l-125 -94l-125 14z" />
<glyph unicode="&#xd5;" d="M100 705q0 -324 155 -522.5t450 -198.5q270 0 455.5 205.5t185.5 541.5q0 324 -160 493t-447 169q-276 0 -457.5 -178t-181.5 -510zM242 731q0 264 138 407.5t343 143.5q229 0 355 -145.5t126 -427.5q0 -272 -142 -442.5t-341 -170.5q-231 0 -355 177t-124 458zM436 1595 v107q139 92 312 -6q158 -88 264 24q39 -90 -35 -136t-164 -28q-37 6 -114.5 49.5t-127.5 43.5q-39 -10 -73.5 -1t-61.5 54q139 92 312 -6q158 -88 264 24q39 -90 -35 -136t-164 -28q-37 6 -114.5 49.5t-127.5 43.5q-86 -7 -135 -54z" />
<glyph unicode="&#xd6;" d="M100 705q0 -324 155 -522.5t450 -198.5q270 0 455.5 205.5t185.5 541.5q0 324 -160 493t-447 169q-276 0 -457.5 -178t-181.5 -510zM242 731q0 264 138 407.5t343 143.5q229 0 355 -145.5t126 -427.5q0 -272 -142 -442.5t-341 -170.5q-231 0 -355 177t-124 458zM459 1628 q0 31 19.5 41t60.5 10q78 0 77 -51q0 -37 -23.5 -71.5t-53.5 -34.5q-33 0 -56.5 34.5t-23.5 71.5zM813 1628q0 51 78 51q80 0 80 -51q0 -37 -23.5 -71.5t-56.5 -34.5q-31 0 -54.5 34.5t-23.5 71.5z" />
<glyph unicode="&#xd8;" d="M90 705q0 332 181.5 510t457.5 178q90 0 174 -19l78 209l102 -35l-77 -207q328 -141 327 -610q0 -336 -184 -541.5t-455 -205.5q-94 0 -184 26l-84 -225q-47 20 -57 27q-45 25 -4 127l43 112q-156 82 -237 252.5t-81 401.5zM231 731q0 -186 56.5 -332.5t165.5 -224.5 l407 1088q-76 20 -147 20q-205 0 -343.5 -143.5t-138.5 -407.5zM553 123q76 -27 158 -27q199 0 341 170t142 443q0 383 -231 514z" />
<glyph unicode="&#xd9;" horiz-adv-x="1435" d="M125 1376q43 -55 58.5 -106t15.5 -135v-682q0 -76 11 -137.5t44 -126t86 -107.5t145.5 -70.5t214.5 -27.5q266 0 401.5 137t135.5 399v856h-129v-868q0 -225 -96.5 -321.5t-298.5 -96.5q-115 0 -193 28.5t-118 84t-56 118t-16 146.5v770q-14 84 -56 139h-149zM543 1644 l80 90l243 -225l-6 -8l-192 45z" />
<glyph unicode="&#xda;" horiz-adv-x="1435" d="M125 1376q43 -55 58.5 -106t15.5 -135v-682q0 -76 11 -137.5t44 -126t86 -107.5t145.5 -70.5t214.5 -27.5q266 0 401.5 137t135.5 399v856h-129v-868q0 -225 -96.5 -321.5t-298.5 -96.5q-115 0 -193 28.5t-118 84t-56 118t-16 146.5v770q-14 84 -56 139h-149zM604 1507 l242 225l80 -88l-123 -100l-193 -43z" />
<glyph unicode="&#xdb;" horiz-adv-x="1435" d="M125 1376q43 -55 58.5 -106t15.5 -135v-682q0 -76 11 -137.5t44 -126t86 -107.5t145.5 -70.5t214.5 -27.5q266 0 401.5 137t135.5 399v856h-129v-868q0 -225 -96.5 -321.5t-298.5 -96.5q-115 0 -193 28.5t-118 84t-56 118t-16 146.5v770q-14 84 -56 139h-149zM450 1536 l260 196l271 -190l-11 -14l-129 -15l-135 96l-125 -94l-125 15z" />
<glyph unicode="&#xdc;" horiz-adv-x="1435" d="M125 1376q43 -55 58.5 -106t15.5 -135v-682q0 -76 11 -137.5t44 -126t86 -107.5t145.5 -70.5t214.5 -27.5q266 0 401.5 137t135.5 399v856h-129v-868q0 -225 -96.5 -321.5t-298.5 -96.5q-115 0 -193 28.5t-118 84t-56 118t-16 146.5v770q-14 84 -56 139h-149zM441 1628 q0 31 19.5 41t60.5 10q78 0 77 -51q0 -37 -23.5 -72t-53.5 -35q-33 0 -56.5 35t-23.5 72zM795 1628q0 51 78 51q80 0 80 -51q0 -37 -23.5 -72t-56.5 -35q-31 0 -54.5 35t-23.5 72z" />
<glyph unicode="&#xdd;" horiz-adv-x="1050" d="M844 1522l242 225l80 -88l-123 -100l-193 -43zM39 1350l127 26l260 -547q66 -133 86 -198q8 -25 33 -8q94 68 172 215q92 178 114 333q4 29 5 55q0 32 -8 57q-13 44 -52 97h139q33 -47 43 -120q2 -20 3 -41q0 -83 -38 -193q-48 -137 -112 -250q-59 -104 -120.5 -176 t-98.5 -98v-502h-129v481z" />
<glyph unicode="&#xdf;" horiz-adv-x="1191" d="M123 1366h149q10 -10 13 -16q115 156 352 155q162 0 250 -72.5t88 -183.5q0 -80 -38 -140t-91 -97t-106.5 -70t-91.5 -76t-38 -98q0 -53 36 -94t89 -63l116 -49q62 -28 115.5 -56.5t89.5 -82.5t36 -128q0 -135 -106.5 -223t-289.5 -88q-113 0 -190 16l4 123 q96 -31 195 -31q127 0 192.5 52.5t65.5 129.5q0 68 -50.5 113t-121 71.5t-141 57.5t-121 91.5t-50.5 150.5q0 68 38 123t92 93l109 75q54 37 92 83t38 101q0 84 -61.5 127t-161.5 43q-133 0 -214 -77t-94 -236v-1334q-12 2 -32.5 6.5t-32.5 6.5q-10 2 -17.5 6t-12.5 10 l-9 11q-4 5 -7 15.5t-4 16.5t-2 19.5t-2 19.5t-1 21v20v1218q0 84 -15.5 134.5t-58.5 105.5z" />
<glyph unicode="&#xe0;" horiz-adv-x="1085" d="M109 223q0 158 160.5 264.5t461.5 133.5v75q0 115 -55 173.5t-184 56.5q-176 0 -310 -90l-14 114q162 78 348 78q344 0 344 -305v-459q0 -90 17.5 -146.5t64.5 -117.5h-162q-45 55 -61 145l-4 2q-100 -164 -332 -163q-123 0 -198.5 61t-75.5 178zM240 250q0 -76 47 -118 t127 -42q68 0 138.5 21.5t124.5 74t54 123.5v215q-491 -55 -491 -274zM303 1335l80 88l246 -225l-8 -8l-193 45z" />
<glyph unicode="&#xe1;" horiz-adv-x="1085" d="M109 223q0 158 160.5 264.5t461.5 133.5v75q0 115 -55 173.5t-184 56.5q-176 0 -310 -90l-14 114q162 78 348 78q344 0 344 -305v-459q0 -90 17.5 -146.5t64.5 -117.5h-162q-45 55 -61 145l-4 2q-100 -164 -332 -163q-123 0 -198.5 61t-75.5 178zM238 250q0 -74 48 -117 t128 -43q68 0 138.5 21.5t124.5 74t54 123.5v215q-493 -55 -493 -274zM412 1198l243 225l78 -88l-123 -100l-192 -43z" />
<glyph unicode="&#xe2;" horiz-adv-x="1085" d="M109 223q0 158 161.5 264.5t462.5 133.5v75q0 115 -55 173.5t-186 56.5q-172 0 -310 -90l-14 114q166 78 348 78q346 0 346 -305v-459q0 -92 16.5 -147.5t63.5 -116.5h-162q-29 39 -40 64.5t-19 80.5l-4 2q-104 -164 -332 -163q-123 0 -199.5 61t-76.5 178zM240 250 q0 -74 48 -117t128 -43q68 0 138.5 21.5t124.5 74t54 123.5v215q-493 -55 -493 -274zM244 1227l260 196l270 -190l-12 -14l-127 -15l-135 96l-125 -94l-125 15z" />
<glyph unicode="&#xe3;" horiz-adv-x="1085" d="M109 225q0 156 161.5 262.5t462.5 135.5v73q0 115 -55 173.5t-186 56.5q-172 0 -310 -90l-14 116q166 78 348 78q346 0 346 -307v-459q0 -90 17.5 -146.5t62.5 -117.5h-162q-29 39 -40 64.5t-19 80.5l-4 2q-106 -164 -332 -163q-123 0 -199.5 62t-76.5 179zM219 1286v107 q139 92 311 -7q158 -88 265 25q39 -90 -35 -136t-164 -28q-37 6 -115 49t-127 43q-39 -10 -73.5 -0.5t-61.5 54.5q139 92 311 -7q158 -88 265 25q39 -90 -35 -136t-164 -28q-37 6 -115 49t-127 43q-86 -6 -135 -53zM240 250q0 -74 48 -117t128 -43q113 0 215 58.5t102 162.5 v199v16q-274 -31 -383.5 -107.5t-109.5 -168.5z" />
<glyph unicode="&#xe4;" horiz-adv-x="1085" d="M109 225q0 156 160.5 262.5t461.5 135.5v73q0 115 -55 173.5t-184 56.5q-176 0 -310 -90l-14 116q162 78 348 78q344 0 344 -307v-457q0 -90 17.5 -147.5t64.5 -118.5h-162q-29 37 -40 62.5t-21 82.5l-4 5q-102 -166 -332 -166q-123 0 -198.5 62t-75.5 179zM240 252 q0 -76 47 -119t127 -43q113 0 215 58.5t102 162.5v215q-274 -31 -382.5 -106.5t-108.5 -167.5zM258 1358q0 31 19.5 41t60.5 10q78 0 78 -51q0 -37 -23.5 -72t-54.5 -35q-33 0 -56.5 35t-23.5 72zM612 1358q0 51 78 51q80 0 80 -51q0 -37 -23.5 -72t-56.5 -35 q-31 0 -54.5 35t-23.5 72z" />
<glyph unicode="&#xe5;" horiz-adv-x="1085" d="M109 223q0 158 161.5 264.5t462.5 135.5v73q0 115 -55 173.5t-186 56.5q-172 0 -310 -90l-14 116q162 76 348 76q344 0 344 -305v-459q0 -90 17.5 -146.5t64.5 -117.5h-162q-29 37 -39 62.5t-20 82.5l-6 2q-100 -164 -332 -163q-121 0 -197.5 62t-76.5 177zM240 250 q0 -74 47 -117t127 -43q113 0 216 57.5t103 161.5v215q-276 -29 -384.5 -105.5t-108.5 -168.5zM334 1339q0 74 54 114t136 40q86 0 137.5 -39t51.5 -115q0 -78 -56.5 -147.5t-132.5 -69.5q-78 0 -134 66.5t-56 150.5zM422 1337q0 -45 30.5 -90t71.5 -45t71 45t30 90 q0 74 -101 74q-102 0 -102 -74z" />
<glyph unicode="&#xe6;" horiz-adv-x="1660" d="M113 225q0 156 160.5 262.5t461.5 135.5v73q0 115 -55 173.5t-184 56.5q-174 0 -312 -90l-14 116q166 78 350 78q256 0 322 -172q119 172 325 172q195 0 292 -115.5t97 -291.5q0 -39 -4 -68q-457 -10 -684 -55q-20 -408 346 -408q166 0 293 66l13 -115q-145 -59 -328 -59 q-170 0 -279.5 70.5t-144.5 178.5h-2q-39 -106 -135 -178.5t-244 -70.5q-125 4 -199.5 64t-74.5 177zM242 252q0 -76 48 -119t128 -43q113 0 215 58.5t102 162.5v215q-274 -31 -383.5 -106.5t-109.5 -167.5zM872 573q82 20 219.5 41t233.5 31l96 10q4 123 -67.5 200 t-194.5 77q-115 0 -194 -94.5t-93 -264.5z" />
<glyph unicode="&#xe7;" horiz-adv-x="907" d="M98 528q0 219 129 358.5t365 139.5q129 0 244 -35l-15 -114q-117 49 -243 49q-166 0 -254 -110.5t-88 -285.5q0 -209 70.5 -320.5t252.5 -111.5q152 0 268 62l13 -113q-94 -39 -215 -53q12 -104 -56.5 -192.5t-173.5 -143.5q-27 29 -43 55q145 96 146 191q0 74 -47 90 q-353 42 -353 534z" />
<glyph unicode="&#xe8;" horiz-adv-x="1030" d="M98 465q2 248 119 405.5t318 157.5q195 0 292 -114.5t97 -292.5q0 -39 -4 -68q-457 -8 -684 -53q-20 -410 346 -410q162 0 292 66l13 -115q-152 -57 -328 -57q-227 0 -345 121.5t-116 359.5zM240 573q182 47 546 80q4 125 -66.5 202t-193.5 77q-115 0 -193.5 -94.5 t-92.5 -264.5zM307 1335l82 88l244 -225l-6 -8l-195 45z" />
<glyph unicode="&#xe9;" horiz-adv-x="1030" d="M100 465q2 248 118 405.5t319 157.5q195 0 292 -114.5t97 -292.5q0 -39 -4 -68q-459 -8 -684 -53q-20 -410 346 -410q162 0 293 66l12 -115q-152 -57 -328 -57q-229 0 -346 121.5t-115 359.5zM242 573q182 47 546 80q4 125 -67.5 202t-192.5 77q-117 0 -194.5 -94.5 t-91.5 -264.5zM432 1198l242 225l80 -88l-123 -100l-193 -43z" />
<glyph unicode="&#xea;" horiz-adv-x="1030" d="M100 467q2 248 119 405.5t318 157.5q197 0 293 -114.5t96 -292.5q0 -39 -4 -68q-457 -8 -684 -53q-20 -410 346 -410q166 0 293 66l12 -115q-147 -57 -328 -57q-227 0 -345 121.5t-116 359.5zM242 575q82 20 219 41t233 31l97 8q4 125 -68 202t-195 77 q-115 0 -193.5 -94.5t-92.5 -264.5zM279 1229l258 196l272 -190l-12 -14l-129 -15l-136 97l-122 -95l-127 15z" />
<glyph unicode="&#xeb;" horiz-adv-x="1030" d="M98 465q2 250 119 407.5t318 157.5q195 0 292 -115.5t97 -291.5q0 -39 -4 -68q-457 -10 -684 -55q-20 -408 346 -408q162 0 292 66l13 -115q-150 -59 -328 -59q-227 0 -345 121.5t-116 359.5zM240 573q182 47 546 82q4 123 -66.5 200t-193.5 77q-117 0 -194.5 -93.5 t-91.5 -265.5zM276 1358q0 31 19.5 41t60.5 10q78 0 78 -51q0 -37 -23.5 -72t-54.5 -35q-33 0 -56.5 35t-23.5 72zM631 1358q0 51 78 51q80 0 79 -51q0 -37 -23.5 -72t-55.5 -35q-31 0 -54.5 35t-23.5 72z" />
<glyph unicode="&#xec;" horiz-adv-x="565" d="M127 1335l80 88l244 -225l-7 -8l-194 45zM166 1016h147q41 -51 56 -142v-874h-127v772q0 82 -16.5 133.5t-59.5 110.5z" />
<glyph unicode="&#xed;" horiz-adv-x="565" d="M125 1198l246 225l80 -88l-125 -100l-193 -45zM166 1016h147q41 -51 56 -142v-874h-127v772q0 84 -16.5 135.5t-59.5 108.5z" />
<glyph unicode="&#xee;" horiz-adv-x="565" d="M25 1227l258 198l270 -192l-10 -12l-129 -15l-135 94l-125 -94l-125 15zM164 1016h149q39 -51 56 -139v-877h-129v774q0 82 -16.5 134.5t-59.5 107.5z" />
<glyph unicode="&#xef;" horiz-adv-x="532" d="M16 1358q0 53 80 53q78 0 78 -53q0 -37 -22.5 -71t-55.5 -34t-56.5 34t-23.5 71zM154 1016h147q27 -33 36 -57.5t19 -81.5v-877h-127v774q0 82 -16 133.5t-59 108.5zM371 1358q0 53 80 53q78 0 77 -53q0 -37 -23.5 -71t-53.5 -34q-33 0 -56.5 34t-23.5 71z" />
<glyph unicode="&#xf1;" horiz-adv-x="1228" d="M166 1012h147q27 -33 36 -57.5t20 -82.5l2 -84l4 -2q90 246 348 246q307 0 307 -327l-2 -465q0 -82 16.5 -133.5t57.5 -106.5h-146q-27 33 -36 57.5t-19 81.5v518q0 135 -47 203t-160 68q-137 0 -231 -126t-94 -321v-481q-39 4 -72 12q-27 4 -40 29t-14 45t-1 66l-2 618 q0 84 -15.5 135.5t-58.5 106.5zM348 1286v107q139 92 311 -7q158 -88 265 25q39 -90 -35 -136t-164 -28q-37 6 -115 49t-127 43q-39 -10 -73.5 -0.5t-61.5 54.5q139 92 311 -7q158 -88 265 25q39 -90 -35 -136t-164 -28q-37 6 -115 49t-127 43q-86 -6 -135 -53z" />
<glyph unicode="&#xf2;" horiz-adv-x="1105" d="M92 528q0 219 127 359.5t348 140.5q442 0 443 -481q0 -231 -131 -397t-347 -166q-205 0 -322.5 141t-117.5 403zM227 539q0 -207 87 -329t241 -122q135 0 229.5 120t94.5 333q0 383 -326 383q-139 0 -232.5 -94t-93.5 -291zM346 1335l80 88l244 -225l-6 -8l-195 45z" />
<glyph unicode="&#xf3;" horiz-adv-x="1105" d="M94 528q0 219 126 359.5t347 140.5q442 0 443 -481q0 -231 -131 -397t-347 -166q-205 0 -321.5 141t-116.5 403zM227 539q0 -207 87 -329t241 -122q135 0 229.5 120t94.5 333q0 383 -326 383q-139 0 -232.5 -94t-93.5 -291zM469 1198l244 225l80 -88l-125 -100l-193 -43z " />
<glyph unicode="&#xf4;" horiz-adv-x="1105" d="M92 528q0 219 127 359.5t348 140.5q442 0 443 -481q0 -231 -131 -397t-347 -166q-205 0 -322.5 141t-117.5 403zM227 539q0 -207 86 -329t242 -122q135 0 228.5 120t93.5 333q0 383 -324 383q-139 0 -232.5 -93t-93.5 -292zM287 1227l260 196l270 -190l-10 -14l-129 -15 l-135 96l-125 -94l-125 15z" />
<glyph unicode="&#xf5;" horiz-adv-x="1105" d="M92 528q0 -262 118 -403t322 -141q215 0 346.5 165.5t131.5 397.5q0 483 -443 483q-221 0 -348 -141.5t-127 -360.5zM227 539q0 199 93.5 293t232.5 94q324 0 324 -385q0 -213 -93.5 -332t-228.5 -119q-154 0 -241 122t-87 327zM264 1286v107q139 92 311 -7 q158 -88 264 25q39 -90 -34.5 -136t-163.5 -28q-37 6 -115 49t-127 43q-39 -10 -74 -0.5t-61 54.5q139 92 311 -7q158 -88 264 25q39 -90 -34.5 -136t-163.5 -28q-37 6 -115 49t-127 43q-86 -6 -135 -53z" />
<glyph unicode="&#xf6;" horiz-adv-x="1105" d="M92 528q0 219 127 360.5t348 141.5q442 0 443 -483q0 -231 -131 -397t-347 -166q-205 0 -322.5 141t-117.5 403zM227 539q0 -205 87 -327t241 -122q135 0 228.5 119t93.5 332q0 385 -324 385q-139 0 -232.5 -94t-93.5 -293zM291 1358q0 51 78 51q80 0 80 -51 q0 -37 -24 -72t-56.5 -35t-55 35t-22.5 72zM645 1358q0 51 78 51q80 0 80 -51q0 -37 -23.5 -72t-56.5 -35t-55.5 35t-22.5 72z" />
<glyph unicode="&#xf7;" horiz-adv-x="907" d="M59 473v107q291 43 789 65l-2 -108q-474 -11 -787 -64zM367 270q0 72 100 72h2q94 0 94 -66q0 -45 -30.5 -89t-71.5 -44t-67.5 41t-26.5 86zM367 948q0 72 100 72h2q94 0 94 -66q0 -45 -30.5 -89t-71.5 -44t-67.5 41t-26.5 86z" />
<glyph unicode="&#xf8;" horiz-adv-x="1103" d="M86 530q0 219 127 359.5t348 140.5q57 0 101 -8l73 192l94 -34l-69 -183q244 -92 244 -448q0 -233 -130.5 -399t-347.5 -166q-70 0 -143 24l-84 -217q-14 0 -47 21q-20 10 -24.5 33.5t0.5 41t18 52.5l45 112q-205 133 -205 479zM221 541q0 -242 117 -363l285 742 q-33 6 -76 6q-139 0 -232.5 -94t-93.5 -291zM424 119q57 -29 125 -29q135 0 228 120t93 333q0 260 -153 344z" />
<glyph unicode="&#xf9;" horiz-adv-x="1247" d="M158 1014h147q41 -49 57 -140l-2 -520q0 -133 47.5 -200.5t161.5 -67.5q135 0 230.5 127t95.5 319l-2 482h129v-770q0 -84 15.5 -135.5t58.5 -108.5h-148q-41 55 -55 141v84l-6 2q-41 -117 -131 -181t-215 -64q-307 0 -308 327v426q1 179 -75 279zM377 1333l80 88 l243 -225l-6 -8l-194 45z" />
<glyph unicode="&#xfa;" horiz-adv-x="1247" d="M158 1014h149q27 -35 37 -59.5t18 -80.5v-520q0 -133 47.5 -200.5t159.5 -67.5q137 0 231.5 126t94.5 320v482h127v-770q0 -84 16.5 -135.5t59.5 -108.5h-148q-41 51 -57 141v84l-4 2q-90 -246 -348 -245q-307 0 -308 327v426q1 181 -75 279zM545 1196l246 225l79 -88 l-125 -100l-192 -45z" />
<glyph unicode="&#xfb;" horiz-adv-x="1247" d="M160 1014h147q41 -51 58 -140l-3 -520q0 -133 47.5 -200.5t161.5 -67.5q137 0 231.5 126t94.5 320l-2 482h129v-772q0 -82 16.5 -134.5t57.5 -107.5h-148q-41 55 -55 139l-2 84l-2 2q-43 -117 -133 -180t-215 -63q-307 0 -307 325v428q0 181 -76 279zM362 1225l261 196 l270 -192l-12 -12l-127 -15l-136 94l-124 -92l-127 15z" />
<glyph unicode="&#xfc;" horiz-adv-x="1247" d="M160 1014h147q41 -51 58 -142l-3 -518q0 -135 47.5 -202.5t161.5 -67.5q135 0 230.5 126t95.5 320l-2 482h129v-770q0 -84 15.5 -135.5t58.5 -106.5h-148q-27 35 -37 59.5t-18 79.5l-2 84l-4 2q-41 -117 -131 -180t-215 -63q-307 0 -307 325v428q0 175 -76 279zM367 1352 q0 33 19.5 43t57.5 10q80 0 80 -53q0 -35 -23.5 -70t-56.5 -35q-31 0 -54 35t-23 70zM719 1352q0 53 80 53q78 0 78 -53q0 -35 -24 -70t-54 -35q-33 0 -56.5 35t-23.5 70z" />
<glyph unicode="&#xfd;" horiz-adv-x="950" d="M790 1159l242 225l80 -88l-123 -100l-193 -43zM-375 -463l21 121q45 -12 112 -12q346 2 660 354l-385 1012h147l248 -697q51 -141 61 -186q2 -10 10.5 -14t14.5 4q66 70 166 268q96 203 115 387q3 25 2 47q0 47 -12 81q-17 50 -64 114h143q29 -35 39 -60.5t19 -81.5 q6 -32 5 -67q0 -189 -155 -492q-41 -82 -70 -125q-94 -162 -234 -306t-337 -249.5t-391 -105.5q-66 0 -115 8z" />
<glyph unicode="&#xff;" horiz-adv-x="950" d="M-375 -463l21 121q45 -12 112 -12q346 2 660 354l-385 1012h147l248 -697q51 -141 61 -186q2 -10 10.5 -14t14.5 4q66 70 166 268q96 203 115 387q3 25 2 47q0 47 -12 81q-17 50 -64 114h143q29 -35 39 -60.5t19 -81.5q6 -32 5 -67q0 -189 -155 -492q-41 -82 -70 -125 q-94 -162 -234 -306t-337 -249.5t-391 -105.5q-66 0 -115 8zM215 1358q0 31 19.5 41t60.5 10q78 0 77 -51q0 -37 -23.5 -72t-53.5 -35q-33 0 -56.5 35t-23.5 72zM569 1358q0 51 78 51q80 0 80 -51q0 -37 -23.5 -72t-56.5 -35q-31 0 -54.5 35t-23.5 72z" />
<glyph unicode="&#x152;" horiz-adv-x="1716" d="M98 707q0 322 161 502t501 180q84 0 164 -13h26q227 6 310 6q150 0 292 -6v-106q-154 8 -309 6q-39 0 -254 -6q16 -117 17 -518q182 23 473 39v-105q-305 -14 -473 -39v-502q0 -27 24 -32q39 -10 184 -11q172 0 338 7v-109q-180 -6 -356 -6q-119 0 -235 20 q-127 -31 -248 -30q-299 0 -457 197.5t-158 525.5zM238 729q0 -289 130 -460t384 -171q39 0 125 13q-2 16 -3 49v940q0 92 -22 172q-61 6 -121 6q-254 0 -373.5 -147.5t-119.5 -401.5z" />
<glyph unicode="&#x153;" horiz-adv-x="1804" d="M94 528q0 219 127 360.5t348 141.5q289 0 389 -209q119 209 351 209q195 0 292 -115.5t97 -291.5q0 -39 -4 -68q-457 -10 -684 -55q-18 -408 346 -408q162 0 293 66l12 -115q-150 -59 -328 -59q-309 0 -413 223q-61 -104 -161 -163.5t-224 -59.5q-205 0 -323 141 t-118 403zM229 539q0 -205 87 -327t241 -122q135 0 228.5 119t93.5 332q0 385 -324 385q-139 0 -232.5 -94t-93.5 -293zM1014 573q182 47 547 82q4 123 -67 200t-194 77q-117 0 -194.5 -94.5t-91.5 -264.5z" />
<glyph unicode="&#x178;" horiz-adv-x="1062" d="M39 1350l127 26l260 -547q66 -133 86 -198q8 -25 33 -8q94 68 172 215q92 178 114 333q10 68 -3 112t-52 97h139q33 -47 43 -120q12 -96 -36 -233.5t-111 -250.5q-59 -104 -120.5 -176t-98.5 -98v-502h-129v481zM270 1628q0 31 19.5 41t60.5 10q78 0 78 -51 q0 -37 -23.5 -71.5t-54.5 -34.5q-33 0 -56.5 34.5t-23.5 71.5zM625 1628q0 51 77 51q80 0 80 -51q0 -37 -23.5 -71.5t-56.5 -34.5q-31 0 -54 34.5t-23 71.5z" />
<glyph unicode="&#x2c6;" horiz-adv-x="897" d="M182 1227l260 196l271 -190l-11 -14l-129 -15l-135 96l-125 -94l-125 15z" />
<glyph unicode="&#x2da;" horiz-adv-x="808" d="M215 1339q0 74 54.5 114t136.5 40q86 0 137 -39t51 -115q0 -78 -56.5 -147.5t-131.5 -69.5q-78 0 -134.5 66.5t-56.5 150.5zM303 1337q0 -45 31 -90t71.5 -45t70.5 45t30 90q0 74 -100 74q-103 0 -103 -74z" />
<glyph unicode="&#x2dc;" horiz-adv-x="1030" d="M244 1286v107q139 92 311 -7q158 -88 264 25q39 -90 -34.5 -136t-163.5 -28q-37 6 -115 49t-127 43q-39 -10 -74 -0.5t-61 54.5q139 92 311 -7q158 -88 264 25q39 -90 -34.5 -136t-163.5 -28q-37 6 -115 49t-127 43q-86 -6 -135 -53z" />
<glyph unicode="&#x2013;" horiz-adv-x="1019" d="M0 594q0 -31 21.5 -50.5t50.5 -15.5q213 16 948 45v101q-88 -4 -315.5 -9.5t-390 -15.5t-314.5 -28v-27z" />
<glyph unicode="&#x2014;" horiz-adv-x="2037" d="M0 573q0 -31 21.5 -50t50.5 -17q295 18 599 27.5t768 18.5t599 13v109q-158 -4 -626 -11.5t-787.5 -18.5t-624.5 -34v-37z" />
<glyph unicode="&#x2018;" horiz-adv-x="464" d="M113 1194q0 -55 31.5 -96t74.5 -41q90 0 100 133q-57 14 -57 92q0 92 146 191q-20 33 -41 55q-106 -55 -180 -143.5t-74 -190.5z" />
<glyph unicode="&#x2019;" horiz-adv-x="464" d="M55 1100q20 -33 41 -56q106 55 180 143.5t74 190.5q0 55 -31.5 96.5t-74.5 41.5q-90 0 -101 -134q57 -14 58 -92q-1 -92 -146 -190z" />
<glyph unicode="&#x201a;" horiz-adv-x="464" d="M55 -236q20 -33 41 -55q106 55 180 143.5t74 190.5q0 55 -31.5 96t-74.5 41q-90 0 -101 -133q57 -14 58 -92q-1 -93 -146 -191z" />
<glyph unicode="&#x201c;" horiz-adv-x="813" d="M113 1194q0 -55 31.5 -96t74.5 -41q90 0 100 133q-57 14 -57 92q0 92 146 191q-20 33 -41 55q-106 -55 -180 -143.5t-74 -190.5zM459 1194q0 -55 31.5 -96t74.5 -41q90 0 101 133q-57 14 -58 92q0 92 146 191q-20 33 -41 55q-106 -55 -180 -143.5t-74 -190.5z" />
<glyph unicode="&#x201d;" horiz-adv-x="813" d="M55 1100q20 -33 41 -56q106 55 180 143.5t74 190.5q0 55 -31.5 96.5t-74.5 41.5q-90 0 -101 -134q57 -14 58 -92q-1 -92 -146 -190zM401 1100q20 -33 41 -56q106 55 180 143.5t74 190.5q0 55 -31.5 96.5t-74.5 41.5q-90 0 -101 -134q57 -14 58 -92q-1 -92 -146 -190z" />
<glyph unicode="&#x201e;" horiz-adv-x="813" d="M78 -236q20 -33 41 -55q106 55 180 143.5t74 190.5q0 55 -32 96t-75 41q-90 0 -100 -133q57 -14 57 -92q0 -93 -145 -191zM403 -236q20 -33 41 -55q106 55 180 143.5t74 190.5q0 55 -31.5 96t-74.5 41q-90 0 -100 -133q57 -14 57 -92q-1 -93 -146 -191z" />
<glyph unicode="&#x2022;" horiz-adv-x="884" d="M197 655q0 -111 64.5 -209t166.5 -98q98 0 172 106.5t74 215.5q0 156 -232 155q-245 0 -245 -170z" />
<glyph unicode="&#x2026;" horiz-adv-x="1282" d="M104 117q0 -51 30 -96.5t77 -45.5q45 0 79 49.5t34 98.5q0 72 -107 72q-113 0 -113 -78zM520 117q0 -51 30 -96.5t77 -45.5q45 0 78.5 49.5t33.5 98.5q0 72 -106 72q-113 0 -113 -78zM936 117q0 -51 29.5 -96.5t76.5 -45.5q45 0 79 49.5t34 98.5q0 72 -106 72 q-113 0 -113 -78z" />
<glyph unicode="&#x2039;" horiz-adv-x="643" d="M127 496v10v6q6 4 18.5 15.5t18.5 17.5l301 258l10 8l8 -12l41 -60l6 -10l-8 -8q-199 -162 -270 -234q86 -76 158 -110q102 -41 108 -43l14 -6l-8 -13l-41 -61l-6 -8l-96 41q-76 41 -138.5 89t-89 80t-26.5 40z" />
<glyph unicode="&#x203a;" horiz-adv-x="643" d="M106 328l11 -13l41 -61l6 -8l96 41q76 41 138.5 89t89 79.5t26.5 40.5v10q0 4 -2 6q-20 20 -35 33l-301 258l-10 8l-8 -12l-41 -60l-8 -10l10 -8q199 -162 270 -234q-96 -82 -158 -110q-96 -39 -108 -43z" />
<glyph unicode="&#x2044;" horiz-adv-x="831" d="M27 -113q-41 -102 4 -127q31 -18 49 -24l905 1749l-98 55z" />
<glyph unicode="&#x20ac;" horiz-adv-x="1024" d="M133 756v71l98 13q-6 43 -6 92q0 29 2 45q-61 -6 -94 -12v71q41 6 103 13q53 344 436 344q111 0 219 -29l-8 -82q-121 37 -230 37q-272 0 -323 -262q219 20 440 33l-10 -74q-195 -4 -438 -31v-39q0 -53 6 -98q264 23 397 29l-10 -72q-166 -6 -375 -27q72 -256 328 -256 q125 0 227 53l10 -79q-123 -51 -264 -52q-162 0 -262 86t-135 238z" />
<glyph unicode="&#x2122;" horiz-adv-x="1435" d="M113 1305v88l18 4q123 18 412 35h22v-91h-22q-31 0 -154 -8v-526h-98v518q-94 -6 -154 -16zM612 893l72 512l2 18h107l4 -14l139 -362q4 -8 14 -39q0 4 2 11t4 11l5 10l141 369l6 14h109l4 -18l82 -563l4 -21l-23 -4l-55 -10l-23 -4l-4 22l-53 371q-2 31 -6 55l-146 -385 l-6 -14h-90l-6 14l-135 355l-6 18q0 -2 -1 -8t-1 -10l-4 -29l-43 -367l-3 -22l-22 4q-6 0 -16.5 1t-14.5 3q-43 10 -37 82z" />
<glyph unicode="&#xe000;" horiz-adv-x="1014" d="M0 1015h1015v-1015h-1015v1015z" />
<glyph unicode="&#xfb01;" horiz-adv-x="1200" d="M88 809v109q68 -18 160 6v141q0 211 112.5 322.5t339.5 111.5q125 0 263 -37l-27 -110q-127 41 -244 41q-315 0 -315 -308v-131q82 16 224 28.5t245 16.5l102 2q41 -49 56 -139v-862h-127v754q0 80 -19 135q-324 -12 -481 -43q8 -123 8 -361.5t-4 -414.5l-4 -179h-129 q20 672 0 924q-78 -22 -160 -6z" />
<glyph unicode="&#xfb02;" horiz-adv-x="1200" d="M90 809v109q68 -18 160 6v219q0 170 110.5 263t331.5 93q119 0 256 -20q29 -35 39 -59.5t19 -80.5l-2 -1339l-37 6q-25 4 -35 6t-17.5 5t-12.5 10l-9 11q-4 5 -7 16.5t-4 16.5t-2 19t-2 19.5t-1 21.5v21v1095q0 84 -17 133q-86 14 -182 15q-156 0 -227.5 -64.5 t-71.5 -208.5v-168q45 8 123 15.5t133 9.5l55 2v-111q-209 -4 -313 -24q10 -123 10 -361.5t-6 -414.5l-4 -179h-127q18 672 0 924q-80 -20 -160 -6z" />
<glyph unicode="&#xfb03;" horiz-adv-x="1941" d="M1542 1016q43 -55 59.5 -107.5t16.5 -134.5v-774h129v877q-16 88 -56 139h-149zM1589 1323q0 -43 25.5 -82t64.5 -39q37 0 65.5 42t28.5 85q0 61 -88 62q-96 0 -96 -68zM795 815q34 -6 67 -6q48 0 95 12q8 -113 8 -343t-4 -404l-4 -176h127q11 338 11 576.5t-11 377.5 q47 8 125 14t133 8l55 3v110q-209 -6 -313 -26v96q0 342 239 342q94 0 164 -23l15 111q-84 18 -168 18q-176 0 -276.5 -119.5t-100.5 -332.5v-123q-53 -14 -98 -14q-34 0 -64 8v-109zM86 815q34 -6 67 -6q48 0 95 12q8 -113 8 -343t-4 -404l-4 -176h127q11 338 11 576.5 t-11 377.5q47 8 125 14t133 8l55 3v110q-209 -6 -313 -26v96q0 342 239 342q94 0 164 -23l15 111q-84 18 -168 18q-176 0 -276.5 -119.5t-100.5 -332.5v-123q-53 -14 -98 -14q-34 0 -64 8v-109z" />
<glyph unicode="&#xfb04;" horiz-adv-x="1957" d="M1556 1489h150q41 -55 55 -139v-1350q-37 4 -74 12q-20 4 -31.5 14.5t-16.5 38t-5 37t-2 50.5v1095q0 82 -16.5 134.5t-59.5 107.5zM795 815q34 -6 67 -6q48 0 95 12q8 -113 8 -343t-4 -404l-4 -176h127q11 338 11 576.5t-11 377.5q47 8 125 14t133 8l55 3v110 q-209 -6 -313 -26v96q0 342 239 342q94 0 164 -23l15 111q-84 18 -168 18q-176 0 -276.5 -119.5t-100.5 -332.5v-123q-53 -14 -98 -14q-34 0 -64 8v-109zM86 815q34 -6 67 -6q48 0 95 12q8 -113 8 -343t-4 -404l-4 -176h127q11 338 11 576.5t-11 377.5q47 8 125 14t133 8 l55 3v110q-209 -6 -313 -26v96q0 342 239 342q94 0 164 -23l15 111q-84 18 -168 18q-176 0 -276.5 -119.5t-100.5 -332.5v-123q-53 -14 -98 -14q-34 0 -64 8v-109z" />
</font>
</defs>
</svg>
