<svg xmlns="http://www.w3.org/2000/svg" width="47" height="57" viewBox="0 0 47 57">
 <path fill="#ff7b3d" d="M431.29,852.371H412.321v-9.877h19.421a2.067,2.067,0,0,1,2.258,1.8v6.285A2.41,2.41,0,0,1,431.29,852.371ZM416.385,840.7c-2.408-.748,0-1.795,0-1.795a22.381,22.381,0,0,0,4.517-3.143c2.258-3.142-.9-3.591-0.9-3.591a7.823,7.823,0,0,0-6.323,4.04c-3.313,3.292-2.259-.449-2.259-0.449,3.312-9.278,10.388-10.325,10.388-10.325,9.033-1.946,9.033,4.938,9.033,4.938C430.387,838.3,416.385,840.7,416.385,840.7Zm-3.161.449h-5.872c-0.6-2.693,2.259-3.142,2.259-3.142C413.375,837.855,413.224,841.147,413.224,841.147Zm-6.459-4.966a7.775,7.775,0,0,0-6.273-4.066s-3.137.452-.9,3.614a22.207,22.207,0,0,0,4.48,3.162s2.39,1.055,0,1.807c0,0-13.89-2.409-14.338-10.39,0,0,0-6.927,8.961-4.969,0,0,7.02,1.054,10.306,10.39C409.005,835.729,410.051,839.494,406.765,836.181Zm1.491,16.19H407.8l-18.969-.449c-2.259.3-1.807-1.347-1.807-1.347v-6.734a1.292,1.292,0,0,1,1.807-1.347h19.421v9.877Zm-19.873,4.04s-0.6-2.095,2.258-2.245h17.615V882H389.738s-2.258-1.048-1.355-2.694v-22.9Zm43.81-.449v23.793s0.452,2.1-2.258,2.245H412.321V854.166h17.162S431.892,853.867,432.193,855.962Z" transform="translate(-387 -825)"/>
</svg>
