<svg xmlns="http://www.w3.org/2000/svg" width="58" height="49" viewBox="0 0 58 49">
 <path fill="#ff7b3d" d="M1030.97,836.454c0,1.689-3,2.323-3,2.323h-2.36v2.534c-0.11,2.428-2.79,2.745-2.79,2.745-2.68-.633-2.58-2.745-2.58-2.745v-2.746h-2.57a3.783,3.783,0,0,1-2.79-1.478c-0.86-3.484,2.36-3.8,2.36-3.8h3v-2.534c-0.32-3.062,2.79-2.745,2.79-2.745,2.04,0,2.79,2.534,2.79,2.534v2.745h2.15C1031.51,833.5,1030.97,836.454,1030.97,836.454Zm-13.52,4.857c0.11,5.7,5.8,5.49,5.8,5.49a50.92,50.92,0,0,0-1.72,5.7,5.458,5.458,0,0,1-4.72,4.013H997.5a5.471,5.471,0,0,1-4.936-4.013c-1.609-5.279-4.935-15.838-4.935-15.838-0.751-3.59,2.575-3.379,2.575-3.379h22.529C1009.73,840.994,1017.45,841.311,1017.45,841.311ZM989.772,852.5a8.382,8.382,0,0,0,7.3,6.758h22.1a3.017,3.017,0,0,1,2.79,2.112,2.984,2.984,0,0,1-2.79,3.167h-22.1a15.542,15.542,0,0,1-9.228-4.012c-2.468-2.323-3.862-8.447-3.862-8.447-1.073-7.5-7.3-8.025-7.3-8.025-4.291,0-3.648-2.534-3.648-2.534-0.214-3.168,3.219-2.745,3.219-2.745,8.262-.212,11.8,7.813,11.8,7.813C988.484,848.28,989.772,852.5,989.772,852.5Zm4.077,13.938a5.28,5.28,0,1,1-5.365,5.279A5.323,5.323,0,0,1,993.849,866.441Zm26.181,0a5.28,5.28,0,1,1-5.37,5.279A5.32,5.32,0,0,1,1020.03,866.441Z" transform="translate(-973 -828)"/>
</svg>
