<svg xmlns="http://www.w3.org/2000/svg" width="46" height="65.969" viewBox="0 0 46 65.969">
  <path fill="#ff7b3d" d="M16.52,13.372H29.562S34.778,4.1,37.387.431A9.35,9.35,0,0,0,33.04,3.882s-2.608,1.51-4.347,0A11.808,11.808,0,0,1,25.214.431S22.171,0,20.867,1.294c0,0-5,5.392-7.825,2.588,0,0-3.913-5.392-5.217-3.451A74.967,74.967,0,0,1,16.52,13.372Zm0,1.726H29.562v5.176H16.52V15.1Zm18.259,9.49a14.35,14.35,0,0,0-9.564-3.451H18.259a16.5,16.5,0,0,0-10.433,6.9S1.087,34.941,0,53.059C0,53.059.435,65.784,25.214,66c0,0,12.825.647,19.128-8.627,0,0,3.043-7.765.869-14.667C45.212,42.706,41.082,29.333,34.778,24.588ZM24.26,57.64V54.58c3.6-.66,5.58-2.94,5.58-5.73,0-2.73-1.38-4.44-5.16-5.67-2.52-.9-3.54-1.47-3.54-2.22,0-.66.54-1.29,2.31-1.29a10.738,10.738,0,0,1,4.53,1.02l0.96-3.99a12.854,12.854,0,0,0-4.56-.96v-2.52H20.96v2.76c-3.39.69-5.28,2.85-5.28,5.58,0,3.03,2.31,4.56,5.58,5.61,2.25,0.69,3.12,1.26,3.12,2.19,0,0.96-1.08,1.38-2.58,1.38a12.2,12.2,0,0,1-5.28-1.32l-0.99,4.14a14.472,14.472,0,0,0,5.31,1.29v2.79h3.42Z" transform="translate(0 -0.031)"/>
</svg>
