<svg xmlns="http://www.w3.org/2000/svg" width="53" height="67.469" viewBox="0 0 53 67.469">
 <path fill="#ff7b3d" d="M48.82,46.326H26.654a4.248,4.248,0,1,1,0-8.5H48.82A4.248,4.248,0,1,1,48.82,46.326Zm-4.534-9.995h-13.6a4.248,4.248,0,1,1,0-8.5h13.6A4.248,4.248,0,1,1,44.286,36.332ZM29.424,26.837s-8.438,1.124-2.519,9.995c0,0-6.927-.125-6.046,6,0,0-.252,3.623,5.038,4.5,0,0-6.8,2-4.534,7,0,0,.882,3.248,5.542,4,0,0-6.423,7.246,2.015,9.995H9.777s-9.824-1-9.572-17.491c0,0-.252-5.372,0-9.5,0,0-.5-9.745,11.083-14.992a9.817,9.817,0,0,0,6.549-9.5s0.5-3.623,1.008-9.495c0,0-.126-6.746,6.046-6.5,0,0,4.66-.125,8.061,5.5,0,0,2.9,4.123-.5,10.994C32.447,17.342,27.787,22.589,29.424,26.837ZM25.9,63.068A4.265,4.265,0,0,1,30.18,58.82H42.775a4.248,4.248,0,1,1,0,8.5H30.18A4.265,4.265,0,0,1,25.9,63.068ZM22.371,52.573a4.265,4.265,0,0,1,4.282-4.248H48.82a4.248,4.248,0,1,1,0,8.5H26.654A4.265,4.265,0,0,1,22.371,52.573Z" transform="translate(-0.094 -0.844)"/>
</svg>
